/* XPM */
static char *_e54f5f5e6d44791f920daba8ff4bef1Bl5KykWlZrvGD5tB[] = {
/* columns rows colors chars-per-pixel */
"64 64 87 1 ",
"  c None",
". c #F25713",
"X c #D67600",
"o c #D67700",
"O c #D77800",
"+ c #D67900",
"@ c #D77900",
"# c #D77A01",
"$ c #D77B02",
"% c #D87B04",
"& c #D87C04",
"* c #D87E07",
"= c #EE5F21",
"- c #E46836",
"; c #F36D31",
": c #F47839",
"> c #F47B3C",
", c #CA7557",
"< c #D9820C",
"1 c #DA8510",
"2 c #D88E12",
"3 c #DC8A1E",
"4 c #D9921A",
"5 c #DA9B24",
"6 c #DF912A",
"7 c #E1942D",
"8 c #E19A38",
"9 c #E0A438",
"0 c #F3844E",
"q c #F58D57",
"w c #E4A245",
"e c #E1AA41",
"r c #E6AB5E",
"t c #EAB05B",
"y c #C98775",
"u c #F79560",
"i c #EBB864",
"p c #F9A976",
"a c #EDBD70",
"s c #EFC678",
"d c #356AAB",
"f c #3A6FB1",
"g c #787890",
"h c #517CB0",
"j c #477DC0",
"k c #6789AF",
"l c #7192BD",
"z c #7D9FC4",
"x c #B79799",
"c c #BEB29E",
"v c #8A90AA",
"b c #919EB6",
"n c #B39BA2",
"m c #A2A4BB",
"M c #BDBDB2",
"N c #F2B789",
"B c #CEBDA1",
"V c #F2C782",
"C c #F6CD8F",
"Z c #FCC694",
"A c #F7CF90",
"S c #F7D598",
"D c #F9D79F",
"F c #D6C6A7",
"G c #D9C9AA",
"H c #D0CBB8",
"J c #D7D1BE",
"K c #E1CFAD",
"L c #FDCEA0",
"P c #E4D2AE",
"I c #FADAA4",
"U c #E7D4B0",
"Y c #EFDBB4",
"T c #E1D7BD",
"R c #F5E0B7",
"E c #FEE4B5",
"W c #F7E2B9",
"Q c #F9E2B8",
"! c #FDE7BB",
"~ c #FFE8BC",
"^ c #FFE9BD",
"/ c #FFEBBC",
"( c #FFEABF",
") c #A8AEC1",
"_ c #B7B9C7",
"` c #FFEBC0",
"' c #FFECC2",
/* pixels */
"@@@@@@@@@@@@@@@@@@@@@@@@@@@@@@@@@@@@@@&<***&&@@@@@@@@@@@@@@@@@@@",
"@@@@@@@@@@@@@@@@@@@@@@@@@@@@@@@@@@@@@@&&&<**&$@@@@@@@@@@@@@@@@@@",
"@@@@@@@@@@@@Oo@@@@@@@@@@@@@@@@@@@@@@@@&<&&<&*&@@@@@@@@@@@@@@@@@@",
"@@@@@@@@@@***<<<<<<<<<<<<<<<<<<<<<<<<11333333311<<<&**@@@@@@@@@@",
"@@@@@@@@o%<244766666666666666666666666888888ww66664421&@@@@@@@@@",
"@@@@@@@@&<25etttttttttttttttttttttttttiiiiiiaaitttte52<$@@@@@@@@",
"@@@@@@@%1229sIDDDDDDDDDDDDDDDDDDDDDDDDIDDDDIIIIDIDDs9221&@@@@@@@",
"@@@@@@*<259iI``((((((((/(((((~RYYRQ(((((((((((//(('Ii952<*@@@@@@",
"@@@@@<2449sIE`(((~~/(~(~~((/(RGBFFY/(~~(((((~(~~~~`EIs9442*@oO@@",
"@@@@&<459iI``~!!~~~~~~~~~~~~~YBccBY((~~~~~~~~~~~~~~``Ii9541*OO@@",
"@@@*2449sIE(!(~~~~~~~~~~~~~(~RGBBGW(~~~~~~~~~~~~~~~(`EIs9442<$O$",
"@@@*459iI'`!QW!(~~~~~~~~~~~~~RPFFKR(~~~~~~~~~~~~~~WR~``Ii954&OOO",
"@@@*29sIE((WPUQ(~~~~~~~~~~~~~RPFFKR~~~~~~~~~~~~~(QUUW~`EIs92&@@@",
"@@o18iI'(~~WUPYQ~~~~~~~~~~~~(RGGFKR(~~~~~~~~~~~~WYPUW~~`'Ii81@@@",
"Ooo6aIE(~~~!QYPUQ~(~~~~~~~~~~RGFFKR~~~~~~~~~~~~QUPYQ~~~~`EIa6o@@",
"Ooo7A'(~~~~~(QUPYR~~~~~~~~~~(RPFFKR~~~~~~~~~~~WYPUQ~(~~~~``A7oo@",
"O@o7A``!~~~~(~QYPPQ((~~~~~~~~RPFGGR~~~~~~~!((QUPYQ!~~~~~~(`A7ooo",
"@@o7A``~~~~~~~~RUPYQ~~~~~~~~~RPFFPR(~~~~~!~!QYPUQ((~~~~~~(`C7oo@",
"@oo7A``!~~~~~~~~QYPUQ(~~~~~~(RPFFPR~~~~~~((QPPYQ!(!~~~~~~(`C7oo@",
"@oo7C``!~~~~~~~(/QUPYR~~~~~~~RGFGGR~~~~~~!QYPUQ~~~~~~~~~~(`C7oo@",
"XXX7C`~!~~~~~~~~~~QYPUQ/~~~~'RGFFKR~~~~~(QPPYQ!(!~~~~~~~~(`C7Xoo",
"XXX7C``~~~~~~~~~~~~QPPYQ~~~~/RUFFPR~~~~~QYPUQ(~~~~~~~~~~~(`C7ooX",
"OOX7A``!~~~~~~~~~~(~QYPUW(~~/RUFGGR~~~(RUPYQ~~~~~~~~~~~~~(`C7ooO",
"OoX6C``!~~~~~~~~~~~~(QUUR(~((WGFFPW/(~~QUUQ(~~~~~~~~~~~~~(`A7o@O",
"O@o7C``!!~~~~~~~~~~~(WWW!(~(/RGKGPR`~~~!RW~~~~~~~~~~~~~~~(`C7Xoo",
"O@o7C``!!!~~~~~~~~~~(//(///RJMMcBNNDE```````~~~~~~~~~~~~~(`C7ooX",
"ooo7C``!~~~~~~~~~~~~///////Jbkhg,;:uL'``````~~~~~~~~~~~~~(`C7ooO",
"Xoo7C``!~((~///////WJHHHHHJmhdfg,=.;pZZZZZZLQ``````~````~``C7o@O",
"O@o7A``!(~/////////Jbkkkkkkkdflbny-.;>>>>::uL''`````````~~`A7ooX",
"Ooo7A``RJHHHHHHHHHH)kdddddddhkm_)n,-.......;pZZZZZZZZZZLE``A7ooO",
"Ooo7A'`Jbkkkkkkkkkkkdddddddhlm__)mny-.......;>:::::::::qL'`A7ooO",
"O@o7A``Hkdffffffffffdddddddkb___)))x-..........=.=.=...>Z'`C7o@O",
"ooX7A//Jzjjjjjjhjjjkfddddddhb)_))))x-.......;;;;;;;;;;;qL`'A6XXo",
"ooX7A''Jmzzzzzzzzzzlhfffffdhzbm))mny-.=.==.;0uuuuuuuuuupI``C7XoX",
"@oo7C`(WJJJJJJJJHJJ_zjhjjjjjhkv))n,-;;;;;;;0NDZLLLLLLLLLE``C7ooX",
"@oo7C`((/////'//'''Jmzzzzzzlhhzmny-;0uuuuuupI'''```'````~``A7oOO",
"@oo7C`(~/(!((~~('`WWTJJJHJJ_lkjvy0;0NLLLLLLIE(((`````~`~!``A7ooX",
"@oo7C`(!((~!~~~~`W!'////'`(JmzzkyqqpI'``(''((~~~~~~~~~~~!``A7oXO",
"ooo7A`(~~~~~~~~~!!!((////~(WTHMcBNZIE```/`(~~~~~~~~~~~~~!``A7oOO",
"Xoo7A/(~~~~~~~~~!(!(~~WR~~~(~QPFFKR`~~!!WR~~~~~~~~~~~~~~!``A7o@O",
"O@o7C`(~~~~~~~~~(~~~~QPUQ(!(~QKFFKR`~~`WUUR~~~~~~~~~~~~~!``C6XXX",
"Ooo7C`(~~~~~~~~~~~~~WYPUR(~~~RPFFKR`~~~WUUYQ~~~~~~~~~~~~!``C6XX%",
"Ooo7C`(~~~~~~~~~~(~WUPYQ!!~~(RPFFKR~~~~~QYUUQ~(!~~~~~~~~!``C7XXO",
"O@o7C`(~~~~~~~~~~!WYPPQ/(~~~~RGGFKR~~~~~(QUKYQ!(~~~~~~~~!``A7XXO",
"ooX7C`(~~~~~~~~(/QPPYQ((~~~~(RKFFKR~~~~~~~QYPPQ(~~~~~~~~~``C7XOO",
"XoX7C`(~~~~~~~~~QYPPQ/~~~~~~~RKFFKR~~~~~~~~QUPYQ!~~~~~~~~~`A7X@O",
"O@X7C`(~~~~~~~(QUPYQ~~~~~~~~(RKFFKR`~~~~~~(!QYPUR`~~~~~~~``A7ooO",
"Ooo7C`(~~~~~~~QYPUQ(~~~~~~~!~RKFFKR~~~~~~~!((QPPYR~~~~~~!``A7o@O",
"Ooo7C/`~~~~((QPPYW~~~~~~~~~~~RKFGGR~~~~~~~~~(!QYUUQ(~~~~~(/A7ooo",
"O@o7C(`~~~~!QYPUW~~~~~~~~~~~(RKFFPR(~~~~~~~~!~(WUKYQ!~~~~((C7oo@",
"ooo7C'(!~~(QUPYQ!~~~~~~~~~~~~RPFFPR~~~~~~~~~!!~!QYPUQ(~!~('C7oo@",
"Ooo6VE!(~~(RUUQ(~~~~~~~~~~~~(RKFFKR~~~~~~~~!!(~(~QUUR(~!(~EV6oo@",
"OO@3iSE((~~~QR!(~~~~~~~~~~~~`RGGFKR~~~~~~~~~~~~~(!WW!!!((ESi3ooO",
"OO$1waSE~~~~~(~!~~~~~~~~~~~~~RGBBGR~(~~~~~~~~~~~~!~(~~(!ESaw1@OO",
"@@O&18aSE(~~~~~~~~~~~~!~~~~~~YBccBY~~~~~~!~~~~~~~~~~~((ESa81&O@@",
"@@OOo1waSE~(((((``~````````~`RGBBGW/((~(~(~(~~(`(((((~ESaw1@OO@@",
"@@$OO%18aSE''```````````````'(RYYR!`````((~~`````````ESa8<&OO$@@",
"@@OOOoo19iVAACCCAAAAAAAAAAAACAAAAAAAAASSSIIIDSAACCCAAVi91@OOOO@@",
"@@@@OO@%<36676776766667767776666667768wwwraarw8677777631&@oO@@@@",
"@@@@OO@@@@o@$@ooX+%+XXXXXXX@@@X+@@@@o%3668rr83%Xooooooo@@@OO@@@@",
"@@@@@@@@@@X+@@@@++++++++++++++++++@@o*3668rr83*@o@oo@@@o$O@@@@@@",
"@@@@@@@@@@@@@@@&$&$$$$$%$$$$$&$$@%&@o<3668rr83*@@@@@O$@@OO@@@@@@",
"@@@@@@@@@@@@@@@$@$+%+@@@+%$+@$$@@$@@%*3668rr83*@@@@@OO@@@@@@@@@@",
"@@@@@@@@@@@@@@@@@@@@@@@@@@@@@@@@@@@oo*3668rr83*@@@@@$O@@@@@@@@@@"
};
