/* XPM */
static char *e10675037d3f47b0c3147c9b2088bcf57XBivnFfv8c8GbhU[] = {
/* columns rows colors chars-per-pixel */
"64 64 84 1 ",
"  c None",
". c #F25510",
"X c #F25B19",
"o c #D67700",
"O c #D77800",
"+ c #D67900",
"@ c #D77900",
"# c #D77A01",
"$ c #D87E06",
"% c #F46B2C",
"& c #E46733",
"* c #F26D32",
"= c #F4793B",
"- c #CB7558",
"; c #D9810C",
": c #DA8510",
"> c #D88E12",
", c #DC8A1E",
"< c #D9921A",
"1 c #DA9B24",
"2 c #DF912A",
"3 c #E1942D",
"4 c #E1942E",
"5 c #E19A38",
"6 c #E0A53A",
"7 c #F48650",
"8 c #E4A148",
"9 c #E6AB5E",
"0 c #EAB05B",
"q c #C78574",
"w c #C88B7C",
"e c #D08D71",
"r c #F79560",
"t c #EBB864",
"y c #F9A976",
"u c #EDBD70",
"i c #F0C67C",
"p c #376CAD",
"a c #787890",
"s c #4675B0",
"d c #547EB0",
"f c #477DC0",
"g c #6789AF",
"h c #7192BD",
"j c #7D9FC4",
"k c #B79799",
"l c #BFB29D",
"z c #929CB5",
"x c #B29BA3",
"c c #BAA0A5",
"v c #ABABBD",
"b c #F2B789",
"n c #CDBEA3",
"m c #F6CE8F",
"M c #FCC694",
"N c #F7D598",
"B c #F9D79F",
"V c #D6C6A7",
"C c #DAC9AA",
"Z c #CFCAB8",
"A c #D7D1BE",
"S c #E1CFAD",
"D c #FDCEA0",
"F c #E4D2AE",
"G c #FED5A7",
"H c #FADBA3",
"J c #E7D4B0",
"K c #EFDBB4",
"L c #E1D7BD",
"P c #F3DFB8",
"I c #F6E0B7",
"U c #FFE1B4",
"Y c #FEE5B5",
"T c #F8E2B8",
"R c #FEE7BB",
"E c #FDE6BC",
"W c #FFE9BC",
"Q c #FFE9BE",
"! c #FFEABF",
"~ c #FFECBD",
"^ c #A5B0C5",
"/ c #B9BCC4",
"( c #FFEBC0",
") c #FFECC2",
/* pixels */
"@@@@@@@@@@@@@@@@@@@@@@@@@@@@@@@@@@@@@@$$$$$$+@@@@@@@@@@@@@@@@@@@",
"@@@@@@@@@@@@@@@@@@@@@@@@@@@@@@@@@@@@@@$$$$$$;@@@@@@@@@@@@@@@@@@@",
"@@@@@@@@@@@@Oo@@@@@@@@@@@@@@@@@@@@@@@@$$;$;;$$++@@@@@@@@@@@@@@@@",
"@@@@@@@@@@$$$;;;;;;;;;;;;;;;;;;;;;;;;::,,,,,,,:;;;;;$$@@@@@@@@@@",
"@@@@@@@@o$;><<322222222222222222222224555555882222<<>:$@@@@@@@@@",
"@@@@@@@@$;>160000000000000000000000000ttttttuit000061>;$@@@@@@@@",
"@@@@@@@$:>>6iHBBBBBBBBBBBBBBBBBBBBBBBBHBBBBGBHBBBBBi6>>:$@@@@@@@",
"@@@@@@$:>16tH((Q!!!!QQQQ!!!!!QPKKPE(Q(QQ!!QQQW!!Q))Ht61>:$@@@@@@",
"@@@@@;><<6iHYQQQQQQQQQQQQQQQWPCnnCPQ!QQQQQQQWQQQQQ!YHi6<<>$oOO@@",
"@@@@;;<16tH((QWQWWWWWWWWWWWWWKnllnKQWWWWWWWWWWWWWWWQ)Ht61<:$OO@@",
"@@@$><<6iHY(QWWWWWWWWWWWWWWWWPCnVCIEWWWWWWWWWWWWWWQQQYHi6<<>;OO#",
"@@@$<16tH)(ETTEWWWWWWWWWWWWWWISVVSIQWWWWWWWWWWWWWWTIW!)Ht61<$O#O",
"@@o$>6iHYQQTFJTQWWWWWWWWWWWWWPSVVCIWWWWWWWWWWWWWWTJJTQQYHi6>$O##",
"@@@:5tH)QWWTJFKTWWWWWWWWWWWWWTSVVSIWWWWWWWWWWWWRIKFJIWQQ)Ht5;OOO",
"Ooo2uHYQQWWETKFJTWWWWWWWWWWWWPSVVSIWWWWWWWWWWWWTJFKTEWWW(YHu2@O#",
"Ooo3m)QWWWWWWTJFKIWWWWWWWWWWWPSVVSIRWWWWWWWWWRTKFFTQWWWQQQ(m3@@O",
"O@o3m((QWWWWWETKFFTWWWWWWWWWWIFVVCIWWWWWWWWW!TJFPTWWWWWWWQ)m3@@@",
"@@o3m(QQWWWWWWWIJFKTWWWWWWWWWIFVVFIWWWWWWWWWTKFFIWWWWWWWWQ!m3@o@",
"@oo3m!QQWWWWWWWWTKFJTWWWWWWWWIFVVFIWWWWWWW~TFFKTEWWWWWWWW!!m2oo@",
"@oo3m)QWWWWWWWWWWTJFKIWWWWWWWICVVFIWWWWWWWTKFJTWWWWWWWWWW!!m3oo@",
"@oo3m)QWWWWWWWWWWWTKFJTQWWWWWPFVVFIQWWWWWTFFKTRWWWWWWWWWQQ(m3@o@",
"@oo3m!!WWWWWWWWWWWWTFFKTEWWWWPSVVCIWWWWWIKFJTWWWWWWWWWWWQ((m3@o@",
"@o@3m)!WWWWWWWWWWWWWTKFJTWWWWIFVCCIWWWWTJFKTRWWWWWWWWWWWWQ)m2oo@",
"@o@3m!!WWWWWWWWWWWWWWTJJTWWWQICVVFTWWWWTJJTWWWWWWWWWWWWWQQ)m4oo@",
"@oo3m(QWWWWWWWWWWWWWQETTEQWW)TFVVFPEQWWTIIE~R~WWWWWWWW!EWQ!m3@@@",
"@oo3m((QWWWWWWWWWWWWE((Q(QQYGMbnl/ZAIWQQE!~RQRWWWWWWWW~EW!!m3@o@",
"@oo3m(QWWQWWEQEEWWWW((((Q))Gyr7ezjj^L~!~!~E(WWWWWWWWWWEEW!!m2oo@",
"@oo3m(QWWQQQ(((EQQQYGDDDDDDb7*7qzsfj/AAAAAAATWWWWWWWWW))W!)m3oo@",
"@oo3m((Q!!((((((!))Gyrrrrrr7%&wxzjdphjjjjjj^A)))WWWW))))QQ)m3oo@",
"@oo3m((UGGDBDDDDMBDb7*******&-c^vzgssgfffffj/AZAAAAAAAZAI(Qm3@o@",
"@oo3m))Gyrrrrrrrrrr7%XXXXXX&qc//vvzjgppppppfjjjjjjjjjjj^L))m2oo@",
"@oo3m((D7%%*********X...X..&k^//vv^zfpppppppffffffgsfgshA!)m4oo@",
"ooo3m)(M=.XXXXXXXXXX...X...&k^^vvvvzsppppppppppppppppppgZ!)m2@@@",
"Ooo3m((Br==========*X......&qxvvvvzhsppppppsdggggggggggzA!)m4@@@",
"O@o3m(!UGMMMMMMMMMMy*......X&-x^vzgspppppppdvZZZZZZZZZZAI!!m2oo@",
"@oo3m(QW!Q!!!)!!(((Dr======%X&qxzhspdggggggzL~~~~~~~~~WWW!!m4oo@",
"@oo3m)!WQ!!!QQ!!(((UBMMMMMMy%.&-aspdvZZZZZZAIWWWWWWWWWWWQ((m2@@@",
"@oo3m!!~WWWWWWWWEQQQ)!Q(QQ(Br=*-adgzLQ!W~!~~WWWWWWWWWWWWQ((m4@o@",
"@oo3m!!WWWWWWWWWWWWWQ!!)QQ(PGbblllZAT~WWWWWWWWWWWWWWWWWWWQ(m4oo@",
"@oo3m!!WWWWWWWWWWWWWQETTEWWE!TSVCFT~WWWETIWWWWWWWWWWWWWWQQ(m4oo@",
"@oo3m((QWWWWWWWWWWWWWTFJTWWW!TSVVCT~WWWTFJTWWWWWWWWWWWWWWQ!m2@@@",
"@oo3m(QQWWWWWWWWWWWWTKFJTWWWWISVVFIWWWWTJFKTWWWWWWWWWWWWQQ!m4@+@",
"@oo3m)QQWWWWWWWWWWWTJFKTRWWWWISVVSIWWWWETKFJTWWWWWWWWWWWW!!m2oo@",
"@oo3m!QQWWWWWWWWWETKFJTWWWWWWISVVFIWWWWWWTJFKTWWWWWWWWWWWQ)m4oo@",
"@o@3m!!QWWWWWWWWWTJFKTWWWWWWWISVVSIWWWWWWWTKFFTWWWWWWWWWQ((m2@@@",
"@oo3m!!WWWWWWWWWTKFFTWWWWWWWWISVVSIWWWWWWWWTJFKTEWWWWWWWQ((m4@o@",
"@o@3m!!WWWWWWWWTJFKTEWWWWWWWWISVVSPWWWWWWWWETKFJIWWWWWWWWQ(m4oo@",
"@o@3m!!WWWWWWETKFJTWWWWWWWWWWISVVSIWWWWWWWWWWTJFKIWWWWWWQQ(m4oo@",
"@oo2m)QWWWWWWTJFKTWWWWWWWWWWWISVVCIWWWWWWWWWWWTKFJT!WWWWWQ!m3@o@",
"@o@4mQ!WWWWWIKFJIWWWWWWWWWWWQISVVFIWWWWWWWWWWWWIFFKTWWWWQQ)m3@o@",
"@oo4m)QQWWWTJFKTWWWWWWWWWWWWQICVVFIWWWWWWWWWWWWWTKFJIWWWWQ)m2oo@",
"@oo2iYQEWWWTJFTQWWWWWWWWWWWW!TJVVFIWWWWWWWWWWWWWWTJJIWWWWWYi2oo@",
"@@o,tNY(WWWWTTWWWWWWWWWQWWWWWICVVSPWWWWWWWWWWWWWWWTTWWWW(YNt,@@@",
"@@@:6uNYEWWWQWWWWWWWWWWQWWWWWIVnnCPWWWWWWWWWWWWWWWWWWWWWUNu6:@@@",
"@@@$:5uNYQWWWQWWWWWQWWEQWQWWWKnllnKWWWWWWWWWQWQEWWWWWWQYNu5:$@@@",
"@@@@o:6uNYW!!!QQ!!!QQQ((QQ!!!IVVnCIQQQQQQQWWQQQ(QQ!!QQYNu6:o@@@@",
"@@#OOO:5uNE)!!)!(((((((((((((EPKKPE((((((E(E((E((((()YNu5:@@@@@@",
"@@OOOoo:6timmmmmmmmmmmmmmmmmmmmmmmmmmmNNNHHHHNmmmmmmmit6:oo@@@@@",
"@@@@OO@$;,22423344444444444444442444358889uu9853444442,:$@@@@@@@",
"@@@@#O@@@@@o@@@@oooooooooooooo+@@@ooo$,225995,$ooooooooO@@@@@@@@",
"@@@@@@@@o@o+@@++++++++++++++++++@@@@o$,225995,$o@@@ooo@o@@@@@@@@",
"@@@@@@@@@@@@@$@@##################@@@;,225995,;#@###@@@@@@@@@@@@",
"@@@@@@@@@@@@##################@@@;,225995,$@@@@@@@@@@@@@@@@@@@@@",
"@@@@@@@@@@@@@@@@@@@@@@@@@@@@@@@@@@@@o$,225995,$o@@@@@@@@@@@@@@@@"
};
