/* XPM */
static char *cf1343ed97f34ed6e44ca55147a4168dgAHIDYutpnEga335[] = {
/* columns rows colors chars-per-pixel */
"64 64 85 1 ",
"  c None",
". c #F25410",
"X c #F15B18",
"o c #D67600",
"O c #D67700",
"+ c #D77800",
"@ c #D77900",
"# c #D77A01",
"$ c #D87E06",
"% c #F1672A",
"& c #F36E2F",
"* c #E36735",
"= c #F57839",
"- c #D97A58",
"; c #F17D45",
": c #D9810C",
"> c #DA8510",
", c #D88E12",
"< c #DC8A1E",
"1 c #D89115",
"2 c #D9931A",
"3 c #DA9B24",
"4 c #DD902A",
"5 c #E0922A",
"6 c #E1942D",
"7 c #E19A38",
"8 c #E0A438",
"9 c #F5864F",
"0 c #E58E5E",
"q c #F18D57",
"w c #F7955E",
"e c #E4A344",
"r c #EAAF5B",
"t c #C78573",
"y c #E5A962",
"u c #EBB865",
"i c #F7A876",
"p c #EEC073",
"a c #3269AB",
"s c #376CAC",
"d c #3C70AF",
"f c #4D78AD",
"g c #467ABA",
"h c #5880AE",
"j c #6489B4",
"k c #7E97B7",
"l c #6D93C0",
"z c #B6979B",
"x c #90A1B6",
"c c #A9ACB9",
"v c #FAB786",
"b c #E0B994",
"n c #C0B4A1",
"m c #CCBFA4",
"M c #F1C780",
"N c #F6CE8F",
"B c #FBC695",
"V c #F7D598",
"C c #F9D79F",
"Z c #D6C6A7",
"A c #D7C9AB",
"S c #DCCAA9",
"D c #D4CDB9",
"F c #E1CFAD",
"G c #FCCFA0",
"H c #E4D2AE",
"J c #FBD9A5",
"K c #E7D4B0",
"L c #E1D6BC",
"P c #F7DCB1",
"I c #F0DCB5",
"U c #F5E0B7",
"Y c #FEE4B5",
"T c #F8E2B8",
"R c #FDE7BB",
"E c #F8E4BC",
"W c #FFE9BC",
"Q c #FFE9BE",
"! c #FFEABF",
"~ c #FFECBD",
"^ c #A2AFC3",
"/ c #AEAFC2",
"( c #B9BCC3",
") c #FFEBC0",
"_ c #FFECC2",
/* pixels */
"@@@@@@@@@@@@@@@@@@@@@@@@@@@@@@@@@@@@@@$$$$$$+@@@@@@@@@@@@@@@@@@@",
"@@@@@@@@@@@@@@@@@@@@@@@@@@@@@@@@@@@@@@$$$$$$;@@@@@@@@@@@@@@@@@@@",
"@@@@@@@@@@@@Oo@@@@@@@@@@@@@@@@@@@@@@@@$$;$;;$$++@@@@@@@@@@@@@@@@",
"@@@@@@@@@@$$$;;;;;;;;;;;;;;;;;;;;;;;;::,,,,,,,:;;;;;$$@@@@@@@@@@",
"@@@@@@@@o$;><<322222222222222222222224555555882222<<>:$@@@@@@@@@",
"@@@@@@@@$;>160000000000000000000000000ttttttuit000061>;$@@@@@@@@",
"@@@@@@@$:>>6iHBBBBBBBBBBBBBBBBBBBBBBBBHBBBBGBHBBBBBi6>>:$@@@@@@@",
"@@@@@@$>,38uP_!Q!!!!!!!Q!!!!!RUIIUR!!!!!!!!!!!!!!__Ju83,>$@@@@@@",
"@@@@@:1218pJY!!Q!QQQQQQQQQ!~~IAZZZU!!QQQQ!!QRQQ!Q!!YJp812,$@@@@@",
"@@@@::138uJ_!R!R!RR~~R~RRR!R~IZznmIR~RR~RR~R~RR!RR~!_Ju832>$@@@@",
"@@@$,128pJY!Q~~R~RR~RR~~!~~R~USZZSU!~R~R~RR~!RE)~~~~!YJp822,$@@@",
"@@@$138uJ_QRTTRRR~RRR~RRRRR~~USZZFUR!RR~R~RRR!!_LDDDU!_Ju831$@@@",
"@@@$18pJY!RTHKT~R!~~R~R~~RR~RUHZZSU~RRRRR!RR!~_L^ljxD~!YJp8,$@@@",
"@@@>7uJ!!!RTKHITRRRRR!RRR~~RQUHZZFURR~~RR~~RRRL(jhajD~~!_Ju7>@@@",
"@@@4pJYQR~~RTIHKT~R~~RR~~RRRRUFZZFU!~!~~R~RQ!L^lgdajD!QR)YJp4o@@",
"@oo6N_!R~R!RRTKHITRRR~R~RR~!RUFZZFURRRRR~RRRL(jhadhxLRRRQ)_N6o@@",
"@@o6N_)Q~R~~RRTIHKTR~~RRRR~RRUHZZFU~~!R!E)_L^jgsah^LRRRR~!_N6o@@",
"@oo6N_QRRRRRR~~TKHITRR~!~RR~!USZZHURRRR!E)L(lgsdhxL_~!R!R!_N6@o@",
"@@o6N!QQ!~R~RRRRTIHKTRRRR~RR~UHZZFUQR~~~~L^lhdahcLEQRRRR~!!N4o@@",
"@oo5N!!QRR~R!~~RRTKHITR~R~!~RUHZZFURRRLDL(lgdaajD!!Q~R~~R!!N6oo@",
"@oo6N!!~RR~R!RR~RRTIHKT~R~RRQUHZZFUR~L^kklgdsaajD~RR~R~RQ))N6o@@",
"@@o6N_!R~!R~~R~R!R~TKHITR~R~QUSZZFURL(lgggdsadhxL~~RR~RRQ))N6@o@",
"@o@6N!!RRRRRRR~R~RRRTIHKTR!RRUSAZHYL^lgdddsaahcLER~~R~R~RQ)N5oo@",
"@@@6N!!!~R~~R~R~~R~RRTKKTR~R~USZz(D(lgdssssdhxL!R~RR~RR!QQ_N6o@@",
"@oo4N)QRR~R~RR!RRR~RRRTTRR~RQTHnxlklgddasaahcLRQ~RR~RR~RR!!N6o@@",
"@o@6N))QQRRR~R~R~RR~~RR!~RR~QIZxjhggdasdsdhxL~R~RR~R~~RRQ!_N6@o@",
"@oo6N)QQ~R!~R~~RR~R!R~~R~RR~QLxjhdddssssahcLR~RR~R~RR~R~R!!N4o@@",
"@@o6N)QQR~RRR~R!~RR~R~R!RR~!QLxjhgdasssaajD~~R~R~RR~RR~R~!!N6oo@",
"@@o6N))QR~RRR!RRRRRRR!RR~RRR)L/xxkfassssajD!!QRRR~RR~~~RQ))N6o@@",
"@o@6N))RIIUUUUUUUUUUUUUUUPCCIL(/cxjfdsadfkDTTUUUUUUUUUIIR))N6@o@",
"@@o6N))IZmZFHHSHHHFFHHSHHbiin(((/cxkgaahxnASHHFFFFHHHSmZI))N5oo@",
"@oo4N))IZnmZZZZZZZZZZZZZby;-z/((/ccxfddknSZZZZZZZZZZAAzmI)_N6o@@",
"@@o6N!!IZzZZZZZZZZZZZZZby;%*z^//cc/kffxnZZZZZZZZZZZZZZnmI!)N4@@@",
"@oo6N_!IAmZHFFFHFFFHFFHbq&X*tzc^^/(ckkZKHHFFFFFHFFFFHSmZI!)N4#o@",
"@o@6N!!RUIUUIUUUIUUUUEEGw&XX*-z^^cKLDDIUTUUUIUUUUUUUUUIIR!!N6oo@",
"@o@6N_!R~~RR~R~RRQRQ)RJv9%X..*tzzcU~~~R~~R~RR!R~~RRRRR~!R!~N6o@@",
"@oo4N!!~~~RRR!~~!R~Q_Ji9&XX..X***qG!~R~RRR~RRRRRR~R~RRRRQ))N6oo@",
"@@@6N!!~~RR~R~RRR~RYJv9%X..X...X%qG!~R~R~!R~~~!~RR~R~!~RQ))N6oo@",
"@oo6N!!RR~~R~RR~RQ!Ji9%X.X..X..%0bPRR~R~RR~RR~~R!R~RRR~~QQ)N6o@@",
"@@o6N!!~RR~RRR~RQQ)Cw&X......X%0bHUR~RRRTTR~RRRR~RR~R~RRQQ)N6oo@",
"@o@6N))QRR!R~R~RRQ_Cw&X.X....%0bZHURR~RTKKT~~RR~RR~R~RR~RQ!N6o@@",
"@@@6N))Q~R~RR~!R!YJv9%X..X&==qbAAHUR~RRTKHITR!~R~~RRR~R!Q!!N6@o@",
"@oo6NQQQR~~RR~R!_Ji9&XX..&iBBBSAZSU!~R~RTIHKTRR~R~!~R~RRR!!N4o@@",
"@oo4N_QRR~RR~R!YJv9%X..X&wG__TFZZHU~!RRRRTKHITRRRRRR~R~R~Q_N6oo@",
"@@o6N!!QRQR~R)_Ji9%X...&iGYQ~UFZZHUQR~R~~RTIHKT~!RR~~R~~Q)_N6o@@",
"@oo6N_!RRQR!)YJv9%X..X&wC_QQ~UFZZHUR~RR~RRRTKHITR~~RRRRRRQ)N6@o@",
"@oo6N_!~QQR))Ji9%X...%iCY!RR~UFZZHURR~RR!R~RTIHKTRRR!~R~R!_N4oo@",
"@o@6N!!RQRRYJv9%XX&==wG)!R~~RUFZZSUQR!R~~RR~RTKHITR~RR~RQ!_N6o@@",
"@oo6N_QR~RQJi9%X.&iBBGY!RRR~~IFZZFURRRRR~RR~~RTIHKT~R!~~R!_N6o@@",
"@@o6N_QQR!)Gq%XX&wG)))R~!~~R~UFZZHU~~~!~R~R!RRRTKHITRRRR~!_N6oo@",
"@@o6V_QR!!!B;..&iGY!)QQRRRRR~UFZZFURR~~RR~RR~R~RTIHKT~RRR!_V6oo@",
"@o@4pYQQ~Q!Cw==wC_!RQQRQ!~R~~UFZZFU~RRRR~R~R~R!RRTKKTR~~R~Yp4o@@",
"@@o<uVYQ~RRYGBBGYQR~R~R~~R~RRUFZZFUR~RR~R~RRRR~RRRTTRR~RQYVu<@@@",
"@@@>epVYR!RQ))))~R!RR!RR~RR~!UFZmSUR!R~RR!R~~RR~~!R~R~RRYVpe>@@@",
"@@@$>7pVYQQR)Q)QR~R~~RQQR~RR~IZznZI!~RRR~R~RR~!RRR~R~!QYVp7>$@@@",
"@@@@o>epVYR)Q)Q)!!!!!!QQ!!!!!UZmmAU!!!!QQQ~RQQ!!!!!!QRYVpe>o@@@@",
"@@@@@@>7uVY__Q_!___!!_))!____QUIIIQ_!!!!Q!QQ!!!_))))_YVu7>@@@@@@",
"@@OOOoo:6timmmmmmmmmmmmmmmmmmmmmmmmmmmNNNHHHHNmmmmmmmit6:oo@@@@@",
"@@@@OO@$;,22423344444444444444442444358889uu9853444442,:$@@@@@@@",
"@@@@#O@@@@@o@@@@oooooooooooooo+@@@ooo$,225995,$ooooooooO@@@@@@@@",
"@@@@@@@@o@o+@@++++++++++++++++++@@@@o$,225995,$o@@@ooo@o@@@@@@@@",
"@@@@@@@@@@@@@$@@##################@@@;,225995,;#@###@@@@@@@@@@@@",
"@@@@@@@@@@@@##################@@@;,225995,$@@@@@@@@@@@@@@@@@@@@@",
"@@@@@@@@@@@@@@@@@@@@@@@@@@@@@@@@@@@@o$,225995,$o@@@@@@@@@@@@@@@@"
};
