/* XPM */
static char *a67370bc0a6743fcd76b0a2cf5e4c317x3wzud0qlTSsa8Zh[] = {
/* columns rows colors chars-per-pixel */
"64 64 92 1 ",
"  c None",
". c #F25510",
"X c #F25B19",
"o c #D67600",
"O c #D67700",
"+ c #D77800",
"@ c #D67900",
"# c #D77900",
"$ c #D77A01",
"% c #D87E06",
"& c #E46734",
"* c #F36D31",
"= c #F5793B",
"- c #CA7557",
"; c #D9810C",
": c #DA8510",
"> c #D88E12",
", c #DB891E",
"< c #D99218",
"1 c #DD8F21",
"2 c #DA9B24",
"3 c #DF922A",
"4 c #E1942D",
"5 c #E1942E",
"6 c #E29A35",
"7 c #E0993D",
"8 c #E0A438",
"9 c #F3844E",
"0 c #F58D58",
"q c #E4A245",
"w c #E1AA41",
"e c #E6AB5E",
"r c #EBB05B",
"t c #C98775",
"y c #F79560",
"u c #EBB864",
"i c #F9AA76",
"p c #EDBD70",
"a c #F0C67C",
"s c #356AAB",
"d c #3A6FB1",
"f c #787890",
"g c #467CBF",
"h c #517CB0",
"j c #6789B0",
"k c #7392BC",
"l c #648EC1",
"z c #7D9FC4",
"x c #898FA9",
"c c #919EB6",
"v c #B49AA0",
"b c #BCB3A0",
"n c #A2A4BB",
"m c #B4B7BF",
"M c #DDB28D",
"N c #F9B988",
"B c #C9BBA1",
"V c #F5CD8F",
"C c #FCC694",
"Z c #F6CF91",
"A c #F7D598",
"S c #F9D79E",
"D c #CEC0A4",
"F c #D6C6A7",
"G c #DACAAA",
"H c #CECAB8",
"J c #D2CCB9",
"K c #D7D1BF",
"L c #DFD6BC",
"P c #E1CFAD",
"I c #FDCFA0",
"U c #E4D2AE",
"Y c #FED5A7",
"T c #FADBA3",
"R c #FED6A9",
"E c #E7D4B0",
"W c #F0DCB4",
"Q c #F5E0B7",
"! c #FEE4B5",
"~ c #F7E2B8",
"^ c #F6E3BC",
"/ c #F9E2B8",
"( c #FDE7BB",
") c #FFE8BC",
"_ c #FFE9BD",
"` c #FFEBBC",
"' c #FFEABE",
"] c #FFEDBF",
"[ c #A8AEC1",
"{ c #BBBBCC",
"} c #FFEBC0",
"| c #FFECC2",
/* pixels */
"@@@@@@@@@@@@@@@@@@@@@@@@@@@@@@@@@@@@@@$$$$$$+@@@@@@@@@@@@@@@@@@@",
"@@@@@@@@@@@@@@@@@@@@@@@@@@@@@@@@@@@@@@$$$$$$;@@@@@@@@@@@@@@@@@@@",
"@@@@@@@@@@@@Oo@@@@@@@@@@@@@@@@@@@@@@@@$$;$;;$$++@@@@@@@@@@@@@@@@",
"@@@@@@@@@@$$$;;;;;;;;;;;;;;;;;;;;;;;;::,,,,,,,:;;;;;$$@@@@@@@@@@",
"@@@@@@@@o$;><<322222222222222222222224555555882222<<>:$@@@@@@@@@",
"@@@@@@@@$;>160000000000000000000000000ttttttuit000061>;$@@@@@@@@",
"@@@@@@@$:>>6iHBBBBBBBBBBBBBBBBBBBBBBBBHBBBBGBHBBBBBi6>>:$@@@@@@@",
"@@####%:>28uT}}_}__]___]____}^LKJL^__}}]]_|____]_}|Tu82>:%####@@",
"@@###%><<8aT!_}_]_)])______]]L[kjcL_]______________!Ta8<<>%#O+@@",
"@@##%:<28uT|}((_)))))))))))_)KzgsjH]`)))))))))))____|Tu82<:%++@@",
"###%><<8aT!____()))))))))))_`KzgdjH_`)))))))))))_(___!Ta8<<>;++$",
"###%<28uT}}(~/(_)))))))))))_`KzgdjH``)))))))))))_(~~__|Tu82<%+$+",
"##O%>8aT!__~EE~_)))))))))))_`KzgdjH``))))))))))__~EE~__!Ta8>%+$$",
"###:6uT|___/EUW~)))))))))))_`KzgdjH``)))))))))_)~WUE~___|Tu6;+++",
"+OO1pT!___((~WUE^)_))))))))_`KzgdjH``))))))))__QEUW~(_(__!Tp1O+$",
"+OO4Z|}_(____~EUWQ(_)))))))_`KzgdjH``)))))))_(QWUE~__(___}|Z4##+",
"+#O5Z}}((_(__(~WUE~__(_()))_`KzgdjH``)))(____~EUW~(__(_(__|Z4OO#",
"#OO4Z}}(_(_((__~EUW~(_(_)))``KzgdjJ``)))_(_(~WUE~___(_(___}V4OO#",
"#OO4Z}(((_(__(_(~WUE~___)))``KzgdjJ]`)))(__~EUW~(_(__(_(__|V4OO#",
"#OO4Z}}(_(_((____~EUW~(_))_^Lmkgdh[L^_))_(~WUE~__(_((_(_(_}V4OO#",
"OOo4V}(((_(_(_(__(~WUE~___`L[lhdsdhcL`))_~EUW~(__(_(_(_((_}V4OOO",
"OOo4V}}(_(_(_(_(___/EUW~)``KzgdssssjH)`)~WUE~__((_(_(_(_(_}V4OO+",
"+OO4Z}}((_(_(_(_(__(~WUE~``KzgdssssjH]_~EUW~(__(_(_(_(_(_}}V4OO+",
"+OO4V}}(_(_(_(_(_((__~EE~``KzgdssssjH_}~EE~___(_(_(_(_(_(_}Z4OO+",
"+OO4V}__(_(_(_(_(_(__(Q~)``KzgdssssjH``)~~(__(_(_(_((_(___}V4OO#",
"+#O4V}_(_(_(_(_(_(_())__))`KzgdssssjJ``)___((_(_(_(__(_((}}V4OO#",
"OOO4V}}_(_(_(_(_(_(_))__)``KzgdssssjJ]`)_((__(_(_(_((_(__}}V4OO#",
"+OO4Z}_(___(_(_(_(_()))__^Lmkghhhhdh[L^)_(_((_(_(_(_(___(_}V4OO#",
"+OO4V}_(__}___}___}___}_`L[lhhkcckhdhcL`_______}_}________}V4oOO",
"+OO4V}_(WWW~W~/W/WW~W~W~/Hzghjnm[cjdsjH~^W~~~/WW~WW~~~WW(_}V4OO+",
"+#O4V}}WFDGPUPPPPPPPEPPPUmklkn{{mnckdhbUPPPPPPPPPPEPGGBFW}}V4OO+",
"+#O4V}}WBbDFFFFFFFFFFFFFFBxxnm{{[[[cffbFFFFFFFFFFFFFFFbBW}}V4OO+",
"OOo4Z}}WBbDFFFFFFFFFFFFFFMttv[[[[[[v--MFFFFFFFFFFFFFFDbBW}}V4OO#",
"OOo4V}}WFDGPPPPEPPPPPPPGPM09tvn[[nvt&*MUPPPPPPPPPPPPPGDFW}}V4OO#",
"+OO4V}_(WWW/W~~W~WW/~WW}^C0*&-v[[v-&.=N^^~/WW~W~W~~WW/WW(}}V4OO#",
"+OO4V}}__}_______}__}}__}Yi9*&tvvt&X*yY___}_}______}______}V4OO#",
"+OO4V}_(___(_(_(_(_(_(__(!RN9*&&&&.*iS!(__(__(_(___(______}V4oOO",
"+#O4Z}_((_(_(_(_(_(_(_(_(}|Iy*X....=C_}((__((_(_(_(__(_((_}V4OO+",
"OOO4Z_}(_(_(_(_(_(_(((__(_}Iy*X....=C}}(__(__(_(_(_((_(___}V4OO+",
"+OO4Z}__(_(_(_(_(_(__(~/(}}Iy*X....=C}}(~/(_(_(_(_(__(_((}}V4OO+",
"+OO4V}_(_(_(_(_(_((__~EE~_|Iy*X....=C}}~EE~__(_(_(_(_(_(__}V4OO#",
"+OO4V}}((_(_(_(_(__(~WEE^_]Sy*X....=C}}~EUW~(_(_(_(_(_(___}V4OO#",
"+#O4Z}_(_(_(_(_(___~EUW~(_}Iy*X....=C}}(~WUE~__(_(_(_(_(_}}V4OO#",
"+#O4Z}__(_(_(_(__(~WUE~____Yi9*X.X*yI}___~EUW~(_(_(_(_(_(_}V4OO#",
"OOo4V}_(_(_((_(__~EEW~(__(_!RN9*X*iI!(}(_(~WEE~___(__(_(__}V4oOO",
"OOo4V_}_(_(__(_(~WUE~__((___|Iy*X=C||(_((__/EUW~(__((_(_(_}V4OO+",
"#Oo4Z}_(_(_((__~EUW~(_(__(__}Iy*X=C|}((_(__(~WUE~__(_(_(__}V4OO+",
"#OO4Z}__(_(__(~WUE~__(_((___}Iy*X=C}}(_(_((__~EUW/(_(_(_(}}V4OO+",
"#OO4V}___((__~EUW~(_(_(_(_(}}Iy*X=C}__(__(_(_(~WUE~___(_(_}V4OO#",
"#OO4Z___(__(~WUE~____(_(_(__}Iy*X=C}_(_((_(_(__/EUW~((_(_}}V4OO#",
"OOO4Z|___(_~EUW~(_(_(_(_(_(_}Iy*X=C}}_(__(_(_(_(~WUE~_(_(_|Z4OO#",
"+OO3a!__(__~EE~__(_(_(_(_(_}}Iy*X=C}_(_((_(_(_(}_~EE~__(__!a3OO#",
"++#1uA!____(~~(_(_(_(((((___}Iy*X=C}__(__(_(_(_(_(~~(____!Au1O++",
"++$;qpA!(_(___(__(_((}((_(_}}Iy*X=C}}(_((_(_(_(_(____(__!Apq:O++",
"+++;:6pA!______((_(((}(((___}Iy*.=C}__(_(__(((((____(__!Ap6:;+++",
"++++O:qpA!_______}}__}}(___}|Ri0=yI|}}________}(______!Apq:O#+++",
"++++O%:6pA!}}}}}}}}}}}}}}(}}}(RICI!_}}}_(}(}(}}}}_}}}!Ap6:$++$++",
"++OOOoo:6timmmmmmmmmmmmmmmmmmmmmmmmmmmNNNHHHHNmmmmmmmit6:oo+++++",
"++++OO+$;,22423344444444444444442444358889uu9853444442,:$+++++++",
"++++#O+++++o++++oooooooooooooo++++ooo$,225995,$ooooooooO++++++++",
"++++++++o+o+++++++++++++++++++++++++o$,225995,$o+++ooo+o++++++++",
"+++++++++++++$++##################+++;,225995,;#+###++++++++++++",
"++++++++++++##################+++;,225995,$+++++++++++++++++++++",
"++++++++++++++++++++++++++++++++++++o$,225995,$o++++++++++++++++"
};
