/* XPM */
static char *b2387004d18f4fd9a3d8e18761a8a0cdZHuejucwjv43zMma[] = {
/* columns rows colors chars-per-pixel */
"64 64 88 1 ",
"  c None",
". c #F25410",
"X c #F15B18",
"o c #D67700",
"O c #D77800",
"+ c #D77900",
"@ c #D87C04",
"# c #ED6829",
"$ c #F2672A",
"% c #F36E2F",
"& c #E26635",
"* c #F4793B",
"= c #DA7B59",
"- c #D9800B",
"; c #DA8510",
": c #D88E12",
"> c #DC8A1E",
", c #D9921A",
"< c #DA9B24",
"1 c #DF912A",
"2 c #E1942D",
"3 c #E1942E",
"4 c #E19A38",
"5 c #E0A53A",
"6 c #F5864F",
"7 c #EC8B57",
"8 c #F7955E",
"9 c #E4A148",
"0 c #E6AB5E",
"q c #EAB05B",
"w c #C78572",
"e c #E59A6E",
"r c #EBB864",
"t c #F8A872",
"y c #F9AB79",
"u c #EDBD70",
"i c #F0C67C",
"p c #346AAB",
"a c #3D6FAC",
"s c #396FB0",
"d c #4D78AD",
"f c #467ABA",
"g c #5880AE",
"h c #6489B4",
"j c #7890B4",
"k c #6C93C0",
"l c #7A9DC4",
"z c #B8999C",
"x c #BEB29B",
"c c #8297AC",
"v c #8F9DBB",
"b c #90A2B0",
"n c #AAADBE",
"m c #FAB786",
"M c #E0B994",
"N c #CCACA1",
"B c #C5BCA7",
"V c #F6CE8F",
"C c #FBC695",
"Z c #F7D598",
"A c #F9D79F",
"S c #CFC1A4",
"D c #D6C6A7",
"F c #DACAAA",
"G c #D1CBB8",
"H c #DCD3BB",
"J c #E1CFAD",
"K c #FCCFA0",
"L c #E4D2AE",
"P c #FADBA3",
"I c #FED7A9",
"U c #E7D4B0",
"Y c #EFDBB4",
"T c #E4D9BE",
"R c #F3DFB7",
"E c #F6E0B7",
"W c #FEE4B5",
"Q c #F8E2B8",
"! c #FDE7BB",
"~ c #F8E4BC",
"^ c #FFE8BC",
"/ c #FFE9BD",
"( c #FFEABD",
") c #FFEDBD",
"_ c #9EB1C3",
"` c #B7BAC3",
"' c #FFEBC0",
"] c #FFECC2",
/* pixels */
"++++++++++++++++++++++++++++++++++++++$$$$$$++++++++++++++++++++",
"++++++++++++++++++++++++++++++++++++++$$$$$$;+++++++++++++++++++",
"++++++++++++Oo++++++++++++++++++++++++$$;$;;$$++++++++++++++++++",
"++++++++++$$$;;;;;;;;;;;;;;;;;;;;;;;;::,,,,,,,:;;;;;$$++++++++++",
"++++++++o$;><<322222222222222222222224555555882222<<>:$+++++++++",
"++++++++$;>160000000000000000000000000ttttttuit000061>;$++++++++",
"+++++++$:>>6iHBBBBBBBBBBBBBBBBBBBBBBBBHBBBBGBHBBBBBi6>>:$+++++++",
"++++++@;:<5rP'')]]^(](]]]](](^RYYR~]((]]]](]^^]]'''Pr5<:;@++++++",
"+++Oo@:,,5iPW'((^(^(^]^^(^((^RDBBFR(((^(^(^(^(^(^^]WPi5,,:@+o+++",
"++++@;,<5rP]''](^^^^^^^^^^^^^YDxxSY(^^^^^^^^^^^^^^!]]Pr5<,;@++++",
"++O@:,,5iPW']]](^^^^^^^^^^^(^RFDDFR((^^^^^^^^^^^^^^(]WPi5,,:@O++",
"++@@,<5rP]'WACCKW]^^^^^^^^^^(RJDDJR(^^^^^^^^^^^^^^QQ!(]Pr5<,@+++",
"++O@:5iPW(]K8**8K]]^^^^^^^^^(RJDDFR(^^^^^^^^^^^((QUUQ(]WPi5:@O++",
"++O;4rP]^^]C*..$tKW(]((^^^^^(RJDDJR(^^^^^^^^^^^!QYLUQ^^^]Pr4;@O+",
"ooo2uPW^^(]K6$XX%8K]]]^^^^^^^RJDDJR(^^^^^^^^^^]RUUYQ^^^^^WPu2oO+",
"+oo3V]]^^((Iy6$X.%tCCKW]^^^^(RJDDJR(^^^^^^^^^^RRLUQ^^^^^^]]V2oo+",
"+oo3V]]!^^(WIm6$XX%**8A']!!^(RJDDJR(^^^^^^^(!QUUYQ!^^^^^^]]V1OOO",
"+oo2V]]^^^^(]Iy6$X...%tKW](^(RJDDJR(^^^^^^^!QYLUQ^(^^^^^^]]V1Oo@",
"+oo2V](^^^^^(WIm6$X..X%8K](!(RJDDJR(^^^^^(!QUUYQ!^^^^^^^^(]V1ooo",
"+oo2V(]^^^^^!(]Iy6$X...%tKW]]QJDDJR^^^^^^!QYLUQ^(^^^^^^^^](V3ooo",
"ooo2V(]!^^^^^((WIm6$X..X%8K]]QJDDJR(^^^^]QULYQ^(^^^^^^^^(''V3oo+",
"+oo2V]]^^^^^^^^('Iy6%XX..%tCCCFDDJR(^^^^RYLUQ^^^^^^^^^^^(''V3+o+",
"+oo2V](^^^^^^^^(^WIm6$X..X%**7MFDJR(^^^QULYQ^^^^^^^^^^^^^]'V1oo+",
"+oo2V(]^^^^^^^^^^''K8%X.X....#eMDJR(^^(QUUQ((^^^^^^^^^^^!]'V3oo+",
"+oo2V](^^^^^^^^^^''K8%X..X...X#7MUQ(^^^^QQ!^^^^^^^^^^^^^^]]V2ooo",
"+oo2V]]!^^^^^^^^^^^Iy6$X..X....#eMR^(^^^((^^^^^^^^^^^^^^^((V2oo+",
"+oo2V(]^^^^^^^^!^^^WIm6$X..X....#7K((^^^^^!(^^^^^^^^^^!^^(]V2oo+",
"+oo2V](^(^^^^^^!^^^^]Iy6%XX..X&&&7K]((^^^^^!^^^^^^!(!(((^]]V2oo+",
"+oo2V]]!^(^((^(('^((]^Im6$X..&wzzNE])(((((^(((((((((^^^^!]]V2oo+",
"+oo2V((!RYRRRRRQRRRRRQ~K8%XX&=znn`HRGHYQRRRRRRRRRRRRRRYE!](V2oo+",
"+oo2V(]RDBFJJJJJJJJJJJJM7%X&wz``nnnnjjBUJJJJJJJJJJJJJFBDR((V2oo+",
"+oo2V]]YBxDDDDDDDDDDDDDMe6$&zn``nnnvddbBDDDDDDDDDDDDDDxBY]]V2oo+",
"ooo2V]]YBxDDDDDDDDDDDDDDMe*=znn`nnnvdadjBFDDDDDDDDDDDDxBR(]V2ooo",
"Ooo2V](RDSDJJJJJJJJLJJJJHMteN`nnnnvjdppdbBFLJJJJJJJJJFBDR(]V2ooO",
"+oo2V^(!RYRRRRRRRRRRQRRRRRAIYH`nnvhdappadcGQERERRRRQRRYR!(]V2ooO",
"+oo2V]]^^(^(((^]((^(^(^(^^]((TnvvjdppappphG)((((((^((^(^^](V2oo+",
"+oo2V(]!(^(^^^^^^^^^^^^^^^^](HvhgfssppapphG)(^!(^^^^^^(^!]]V2oo+",
"+oo2V]]!^^^^^^^^^^^^^^^^^^^^(H_hssssappppgnH~((!^^^^^^^^!](V2oo+",
"+oo2V(]^^^^^^^^^^^^^^^^^^^^^^RGbhgsgspappagbH)((^^^^^^^^^](V2oo+",
"+oo2V]]^^^^^^^^^^^^^^^QQ^^^^(QJB_llkgappapadnH~((^^^^^^^^(]V2oo+",
"+oo2V(]!^^^^^^^^^^^(^QUUQ^^^(RJDnBG`kfsppppagbH)(^^^^^^^^]]V2ooo",
"+oo2V]]^^^^^^^^^^^^!QYLUQ(^^(RJDDLWH_kfsssappgnH~^^^^^^^^((V2oo+",
"+oo2V](^^^^^^^^^^^]RULYQ!^^^(RJDDJQ~T`kfffsppagbH((^^^^^^](V2oo+",
"+oo2V(]^^^^^^^^^^^RRLUQ((^^^^RJDDJQ)(T_llkfsppphG)(^^^^^^]]V2oo+",
"ooo2V(]!^^^^^^^((QUUYQ^^^^^^^QJDDJE((QTHH`kfspphG!!!^^^^!]]V2oo+",
"+oo2V]]^^^^^^^^!QYJUQ^(^^^^^(RJDDJE((((()T_kfsad_T~(^^^^!](V2oo+",
"+oo2V](^^^^^^(^QULYQ^^^^^^(!(RJDDJE(^^(((~T`kfsagbH)(^^^^](V2oo+",
"+oo2V(]^^^^^^!QYLUQ(^^^^^^!!(RJDDJE)^^^^(((T_kfsadnH~(^^^(]V2oo+",
"+oo2V]]^^^^^^QUUYQ^(^^^^^^^^(RJDDJR(^^^^^((~T`kfsagbH(^^^]]V2ooo",
"+oo2V((^^^^^QYLUQ^^^^^^^^^^^(EJDDJR(^^^^^^^((T_kfsphG((^^](V2oo+",
"ooo2V]]^^^^QULYQ!^^^^^^^^^^^^EJDDJR(^^^^^^^^(~T`kfphG((^^]]V2oo+",
"ooo2iW!(^^(QUUQ^^^^^^^^^^^^^^RJDDJR^^^^^^^^^^((T_khbH((^^^Wi2oo+",
"+Oo>rZW((^^^QQ!^^^^^^^^^^^^^(RJDDJR(^^^^^^^^^^(~TGGHR(^^(WZr>oo+",
"++O;5uZW^^^^^(^^^^^^^^^^^^^^(RFDDDR(^^^^^^^^^^^((((((^(^WZu5-+++",
"+++@;4uZW^^^!!^^!^^^^^^^^!^^^YBxxBR^^^^^^^^^^^((((((^^^WZu4;@+++",
"++++o;5uZW^(]]]]](]]^]](]]](]RFBBDR](]]^(^(^(^]'](](]^WZu5;o++++",
"+++++@;4uZW]]](]]](]](]](]]]]!RRRR^]''''''^^]]''(]]]]WZu4;@OO+++",
"++OOOoo:6timmmmmmmmmmmmmmmmmmmmmmmmmmmNNNHHHHNmmmmmmmit6:oo+++++",
"++++OO+$;,22423344444444444444442444358889uu9853444442,:$+++++++",
"++++#O+++++o++++oooooooooooooo++++ooo$,225995,$ooooooooO++++++++",
"++++++++o+o+++++++++++++++++++++++++o$,225995,$o+++ooo+o++++++++",
"+++++++++++++$++##################+++;,225995,;#+###++++++++++++",
"++++++++++++##################+++;,225995,$+++++++++++++++++++++",
"++++++++++++++++++++++++++++++++++++o$,225995,$o++++++++++++++++"
};
