/* XPM */
static char *_1646_df475d49d70564db925b0d9f8f4434e1cd8c7ba15d3c7686bf3052e7a4338fae[] = {
/* columns rows colors chars-per-pixel */
"64 64 5 1 ",
"  c #FF6600",
". c #FF6633",
"X c #FF9900",
"o c yellow",
"O c #FF00C3",
/* pixels */
"OOOOOOOOOOOOOOOOOOOOOOOOOOOOOOOOOOOOOOOOOOOOOOOOOOOOOOOOOOOOOOOO",
"OOOOOOOOOOOOOOOOOOOOOOOOOOOOOOOOOOOOOOOOOOOOOOOOOOOOOOOOOOOOOOOO",
"OOOOOOOOOOOOOOOOOOOOOOOOOOOOOOOOOOOOOOOOOOOOOOOOOOOOOOOOOOOOOOOO",
"OOOOOOOOOOOOOOOOOOOOOOOOOOOOOOOOOOOOOOOOOOOOOOOOOOOOOOOOOOOOOOOO",
"OOOOOOOOOOOOOOOOOOOOOOOOOOOOOOOOOOOOOOOOOOOOOOOOOOOOOOOOOOOOOOOO",
"OOOOOOOOOOOOOOOOOOOOOOOOOOOOOOOOOOOOOOOOOOOOOOOOOOOOOOOOOOOOOOOO",
"OOOOOOOOOOOOOOOOOOOOOOOOOOOOOOOOOOOOOOOOOOOOOOOOOOOOOOOOOOOOOOOO",
"OOOOOOOOOOOOOOOOOOOOOOOOOOOOOOOOOOOOOOOOOOOOOOOOOOOOOOOOOOOOOOOO",
"OOOOOOOOOOOOOOOOOOOOOOOOOOOOOOOOOOOOOOOOOOOOOOOOOOOOOOOOOOOOOOOO",
"OOOOOOOOOOOOOOOOOOOOOOOOOOOOOOOOOOOOOOOOOOOOOOOOOOOOOOOOOOOOOOOO",
"OOOOOOOOOOOOOOOOOOOOOOOOOOOOOOOOOOOOOOOOOOOOOOOOOOOOOOOOOOOOOOOO",
"OOOOOOOOOOOOOOOOOOOOOOOOOOOOOOOOOOOOOOOOOOOOOOOOOOOOOOOOOOOOOOOO",
"OOOOOOOOOOOOOOOOOOOOOOOOOOOOOOOOOOOOOOOOOOOOOOOOOOOOOOOOOOOOOOOO",
"OOOOOOOOOOOOOOOOOOOOOOOOOOOOOOOOOOOOOOOOOOOOOOOOOOOOOOOOOOOOOOOO",
"OOOOOOOOOOOOOOOOOOOOOOOOOOOOOOOOOOOOOOOOOOOOOOOOOOOOOOOOOOOOOOOO",
"OOOOOOOOOOOOOOOOOOOOOOOOOOOOOOOOOOOOOOOOOOOOOOOOOOOOOOOOOOOOOOOO",
"OOOOOOOOOOOOOOOOOOOOOOOOOOOOOOOOOOOOOOOOOOOOOOOOOOOOOOOOOOOOOOOO",
"OOOOOOOOOOOOOOOOOOOOOOOOOOOOOOOO....OOOOOOOOOOOOOOOOOOOOOOOOOOOO",
"OOOOOOOOOOOOOOOOOOOOOOOOOOOOOOOO....OOOOOOOOOOOOOOOOOOOOOOOOOOOO",
"OOOOOOOOOOOOOOOOOOOOOO..OOOOOOOO....OOOOOOOOOOOOOOOOOOOOOOOOOOOO",
"OOOOOOOOOOOOOOOOOOOOOO..OOOOOOOO....OOOOOOOOOOOOOOOOOOOOOOOOOOOO",
"OOOOOOOOOOOOOOOOOOOOOO..OOOOOOOO......OOOOOOOOOOOOOOOOOOOOOOOOOO",
"OOOOOOOOOOOOOOOOOOOOOO..OOOOOOOO......OOOOOOOOOOOOOOOOOOOOOOOOOO",
"OOOOOOOOOOOOOOOOOOOOOO....OOOOOO......OOOOOOOOOOOOOOOOOOOOOOOOOO",
"OOOOOOOOOOOOOOOOOOOOOO....OOOOOO......OOOOOOOOOOOOOOOOOOOOOOOOOO",
"OOOOOOOOOOOOOOOOOOOOOO......OOOO........OOOOOOOOOOOOOOOOOOOOOOOO",
"OOOOOOOOOOOOOOOOOOOOOO......OOOO........OOOOOOOOOOOOOOOOOOOOOOOO",
"OOOOOOOOOOOOOOOOOOOOOO......OOOO........OOOOOOOOOOOOOOOOOOOOOOOO",
"OOOOOOOOOOOOOOOOOOOOOO......OOOO........OOOOOOOOOOOOOOOOOOOOOOOO",
"OOOOOOOOOOOOOOOOOOOOOO....XX......XX....OOOO..OOOOOOOOOOOOOOOOOO",
"OOOOOOOOOOOOOOOOOOOOOO....XX......XX....OOOO..OOOOOOOOOOOOOOOOOO",
"OOOOOOOOOOOOOOOOOOOOOO..  XXXX....XX....OO....OOOOOOOOOOOOOOOOOO",
"OOOOOOOOOOOOOOOOOOOOOO..  XXXX....XX....OO....OOOOOOOOOOOOOOOOOO",
"OOOOOOOOOOOOOOOOOOOOOO..  XXXXXX..XX..XXOO....OOOOOOOOOOOOOOOOOO",
"OOOOOOOOOOOOOOOOOOOOOO..  XXXXXX..XX..XXOO....OOOOOOOOOOOOOOOOOO",
"OOOOOOOOOOOOOOOO..OOOOOO  XXXXXX..XX..XX......OOOOOOOOOOOOOOOOOO",
"OOOOOOOOOOOOOOOO..OOOOOO  XXXXXX..XX..XX......OOOOOOOOOOOOOOOOOO",
"OOOOOOOOOOOOOOOO....OOOO  XXXXXXXXXXXXXX......OOOOOOOOOOOOOOOOOO",
"OOOOOOOOOOOOOOOO....OOOO  XXXXXXXXXXXXXX......OOOOOOOOOOOOOOOOOO",
"OOOOOOOOOOOOOOOO....OOOO  XXXXXXXXXXXX..XX....OOOOOOOOOOOOOOOOOO",
"OOOOOOOOOOOOOOOO....OOOO  XXXXXXXXXXXX..XX....OOOOOOOOOOOOOOOOOO",
"OOOOOOOOOOOOOOOO..........XXXXXXooXXXX..XX....OOOOOOOOOOOOOOOOOO",
"OOOOOOOOOOOOOOOO..........XXXXXXooXXXX..XX....OOOOOOOOOOOOOOOOOO",
"OOOOOOOOOOOOOOOO......XX..XXXXXXooooXXXXXX..OO..OOOOOOOOOOOOOOOO",
"OOOOOOOOOOOOOOOO......XX..XXXXXXooooXXXXXX..OO..OOOOOOOOOOOOOOOO",
"OOOOOOOOOOOOOOOO......XXXXXXXXooooooXXXX........OOOOOOOOOOOOOOOO",
"OOOOOOOOOOOOOOOO......XXXXXXXXooooooXXXX........OOOOOOOOOOOOOOOO",
"OOOOOOOOOOOOOOOOOO......XXXXXXooooooXXXX........OOOOOOOOOOOOOOOO",
"OOOOOOOOOOOOOOOOOO......XXXXXXooooooXXXX........OOOOOOOOOOOOOOOO",
"OOOOOOOOOOOOOOOOOOOO......XXXXooooooXX........OOOOOOOOOOOOOOOOOO",
"OOOOOOOOOOOOOOOOOOOO......XXXXooooooXX........OOOOOOOOOOOOOOOOOO",
"OOOOOOOOOOOOOOOOOOOOOO....XXXXXXXXXXXX........OOOOOOOOOOOOOOOOOO",
"OOOOOOOOOOOOOOOOOOOOOO....XXXXXXXXXXXX........OOOOOOOOOOOOOOOOOO",
"OOOOOOOOOOOOOOOOOOOOOO......................OOOOOOOOOOOOOOOOOOOO",
"OOOOOOOOOOOOOOOOOOOOOO......................OOOOOOOOOOOOOOOOOOOO",
"OOOOOOOOOOOOOOOOOOOOOOOO................OOOOOOOOOOOOOOOOOOOOOOOO",
"OOOOOOOOOOOOOOOOOOOOOOOO................OOOOOOOOOOOOOOOOOOOOOOOO",
"OOOOOOOOOOOOOOOOOOOOOOOOOOOOOOOOOOOOOOOOOOOOOOOOOOOOOOOOOOOOOOOO",
"OOOOOOOOOOOOOOOOOOOOOOOOOOOOOOOOOOOOOOOOOOOOOOOOOOOOOOOOOOOOOOOO",
"OOOOOOOOOOOOOOOOOOOOOOOOOOOOOOOOOOOOOOOOOOOOOOOOOOOOOOOOOOOOOOOO",
"OOOOOOOOOOOOOOOOOOOOOOOOOOOOOOOOOOOOOOOOOOOOOOOOOOOOOOOOOOOOOOOO",
"OOOOOOOOOOOOOOOOOOOOOOOOOOOOOOOOOOOOOOOOOOOOOOOOOOOOOOOOOOOOOOOO",
"OOOOOOOOOOOOOOOOOOOOOOOOOOOOOOOOOOOOOOOOOOOOOOOOOOOOOOOOOOOOOOOO",
"OOOOOOOOOOOOOOOOOOOOOOOOOOOOOOOOOOOOOOOOOOOOOOOOOOOOOOOOOOOOOOOO"
};
