/* XPM */
static char *_9111_f74bdef3dd5fff7c30f48e8215172e06f26f18a38716c694f4a3b42db9a7220b[] = {
/* columns rows colors chars-per-pixel */
"64 64 5 1 ",
"  c #FF6600",
". c #FF6633",
"X c #FF9900",
"o c yellow",
"O c #FF00C3",
/* pixels */
"OOOOOOOOOOOOOOOOOOOOOOOOOOOOOOOOOOOOOOOOOOOOOOOOOOOOOOOOOOOOOOOO",
"OOOOOOOOOOOOOOOOOOOOOOOOOOOOOOOOOOOOOOOOOOOOOOOOOOOOOOOOOOOOOOOO",
"OOOOOOOOOOOOOOOOOOOOOOOOOOOOOOOOOOOOOOOOOOOOOOOOOOOOOOOOOOOOOOOO",
"OOOOOOOOOOOOOOOOOOOOOOOOOOOOOOOOOOOOOOOOOOOOOOOOOOOOOOOOOOOOOOOO",
"OOOOOOOOOOOOOOOOOOOOOOOOOOOOOOOOOOOOOOOOOOOOOOOOOOOOOOOOOOOOOOOO",
"OOOOOOOOOOOOOOOOOOOOOOOOOOOOOOOOOOOOOOOOOOOOOOOOOOOOOOOOOOOOOOOO",
"OOOOOOOOOOOOOOOOOOOOOOOOOOOOOOOOOOOOOOOOOOOOOOOOOOOOOOOOOOOOOOOO",
"OOOOOOOOOOOOOOOOOOOOOOOOOOOOOOOOOOOOOOOOOOOOOOOOOOOOOOOOOOOOOOOO",
"OOOOOOOOOOOOOOOOOOOOOOOOOOOOOOOOOOOOOOOOOOOOOOOOOOOOOOOOOOOOOOOO",
"OOOOOOOOOOOOOOOOOOOOOOOOOOOOOO    OOOOOOOOOOOOOOOOOOOOOOOOOOOOOO",
"OOOOOOOOOOOOOOOOOOOOOOOOOOOOOO    OOOOOOOOOOOOOOOOOOOOOOOOOOOOOO",
"OOOOOOOOOOOOOOOOOOOOOOOOOOOOOO    OOOOOOOOOOOOOOOOOOOOOOOOOOOOOO",
"OOOOOOOOOOOOOOOOOOOOOOOOOOOOOO    OOOOOOOOOOOOOOOOOOOOOOOOOOOOOO",
"OOOOOOOOOOOOOOOOOOOOOOOOOOOOOO    OOOOOOOOOOOOOOOOOOOOOOOOOOOOOO",
"OOOOOOOOOOOOOOOOOOOOOOOOOOOOOO    OOOOOOOOOOOOOOOOOOOOOOOOOOOOOO",
"OOOOOOOOOOOOOOOOOOOOOOOOOOOOOOOO  OOOOOOOOOOOOOOOOOOOOOOOOOOOOOO",
"OOOOOOOOOOOOOOOOOOOOOOOOOOOOOOOO  OOOOOOOOOOOOOOOOOOOOOOOOOOOOOO",
"OOOOOOOOOOOOOOOOOOOOOOOOOOOOOOOO  OOOOOOOOOOOOOOOOOOOOOOOOOOOOOO",
"OOOOOOOOOOOOOOOOOOOOOOOOOOOOOOOO  OOOOOOOOOOOOOOOOOOOOOOOOOOOOOO",
"OOOOOOOOOOOOOOOOOOOOOOOOOOOOOO    OOOOOO  OOOOOOOOOOOOOOOOOOOOOO",
"OOOOOOOOOOOOOOOOOOOOOOOOOOOOOO    OOOOOO  OOOOOOOOOOOOOOOOOOOOOO",
"OOOOOOOOOOOOOOOOOOOOOO  OOOOOO    ....    OOOOOOOOOOOOOOOOOOOOOO",
"OOOOOOOOOOOOOOOOOOOOOO  OOOOOO    ....    OOOOOOOOOOOOOOOOOOOOOO",
"OOOOOOOOOOOOOOOOOOOOOO  OOOO        ..    OOOOOOOOOOOOOOOOOOOOOO",
"OOOOOOOOOOOOOOOOOOOOOO  OOOO        ..    OOOOOOOOOOOOOOOOOOOOOO",
"OOOOOOOOOOOOOOOOOOOOOO          ..  ..    OOOOOOOOOOOOOOOOOOOOOO",
"OOOOOOOOOOOOOOOOOOOOOO          ..  ..    OOOOOOOOOOOOOOOOOOOOOO",
"OOOOOOOOOOOOOOOOOOOOOO          XX  ..    OOOOOOOOOOOOOOOOOOOOOO",
"OOOOOOOOOOOOOOOOOOOOOO          XX  ..    OOOOOOOOOOOOOOOOOOOOOO",
"OOOOOOOOOOOOOOOOOO  OO          XXXX    OOOOOOOOOOOOOOOOOOOOOOOO",
"OOOOOOOOOOOOOOOOOO  OO          XXXX    OOOOOOOOOOOOOOOOOOOOOOOO",
"OOOOOOOOOOOOOOOOOO            XXXXXX    OOOO  OOOOOOOOOOOOOOOOOO",
"OOOOOOOOOOOOOOOOOO            XXXXXX    OOOO  OOOOOOOOOOOOOOOOOO",
"OOOOOOOOOOOOOOOOOO            XXXXXX          OOOOOOOOOOOOOOOOOO",
"OOOOOOOOOOOOOOOOOO            XXXXXX          OOOOOOOOOOOOOOOOOO",
"OOOOOOOOOOOOOOOOOO            XXXXXX          OOOOOOOOOOOOOOOOOO",
"OOOOOOOOOOOOOOOOOO            XXXXXX          OOOOOOOOOOOOOOOOOO",
"OOOOOOOOOOOOOOOOOOOO      XX  XXXXXXXX      OOOOOOOOOOOOOOOOOOOO",
"OOOOOOOOOOOOOOOOOOOO      XX  XXXXXXXX      OOOOOOOOOOOOOOOOOOOO",
"OOOOOOOOOOOOOOOOOOOO      XXXXXXXXXXXXXX  OO  OOOOOOOOOOOOOOOOOO",
"OOOOOOOOOOOOOOOOOOOO      XXXXXXXXXXXXXX  OO  OOOOOOOOOOOOOOOOOO",
"OOOOOOOOOOOOOOOOOO          XXXXXXXXXXXX      OOOOOOOOOOOOOOOOOO",
"OOOOOOOOOOOOOOOOOO          XXXXXXXXXXXX      OOOOOOOOOOOOOOOOOO",
"OOOOOOOOOOOOOOOOOO          XXXXXXooXXXX      OOOOOOOOOOOOOOOOOO",
"OOOOOOOOOOOOOOOOOO          XXXXXXooXXXX      OOOOOOOOOOOOOOOOOO",
"OOOOOOOOOOOOOOOOOO        XXXXXXXXooXXXXXX    OOOOOOOOOOOOOOOOOO",
"OOOOOOOOOOOOOOOOOO        XXXXXXXXooXXXXXX    OOOOOOOOOOOOOOOOOO",
"OOOOOOOOOOOOOOOOOOOO      XXXXXXXXooXXXX      OOOOOOOOOOOOOOOOOO",
"OOOOOOOOOOOOOOOOOOOO      XXXXXXXXooXXXX      OOOOOOOOOOOOOOOOOO",
"OOOOOOOOOOOOOOOOOOOO        XXXXooXXXX..      OOOOOOOOOOOOOOOOOO",
"OOOOOOOOOOOOOOOOOOOO        XXXXooXXXX..      OOOOOOOOOOOOOOOOOO",
"OOOOOOOOOOOOOOOOOOOOOO          XXXXXX      OOOOOOOOOOOOOOOOOOOO",
"OOOOOOOOOOOOOOOOOOOOOO          XXXXXX      OOOOOOOOOOOOOOOOOOOO",
"OOOOOOOOOOOOOOOOOOOOOO..        ........    OOOOOOOOOOOOOOOOOOOO",
"OOOOOOOOOOOOOOOOOOOOOO..        ........    OOOOOOOOOOOOOOOOOOOO",
"OOOOOOOOOOOOOOOOOOOOOOOO................  OOOOOOOOOOOOOOOOOOOOOO",
"OOOOOOOOOOOOOOOOOOOOOOOO................  OOOOOOOOOOOOOOOOOOOOOO",
"OOOOOOOOOOOOOOOOOOOOOOOOOOOOOOOOOOOOOOOOOOOOOOOOOOOOOOOOOOOOOOOO",
"OOOOOOOOOOOOOOOOOOOOOOOOOOOOOOOOOOOOOOOOOOOOOOOOOOOOOOOOOOOOOOOO",
"OOOOOOOOOOOOOOOOOOOOOOOOOOOOOOOOOOOOOOOOOOOOOOOOOOOOOOOOOOOOOOOO",
"OOOOOOOOOOOOOOOOOOOOOOOOOOOOOOOOOOOOOOOOOOOOOOOOOOOOOOOOOOOOOOOO",
"OOOOOOOOOOOOOOOOOOOOOOOOOOOOOOOOOOOOOOOOOOOOOOOOOOOOOOOOOOOOOOOO",
"OOOOOOOOOOOOOOOOOOOOOOOOOOOOOOOOOOOOOOOOOOOOOOOOOOOOOOOOOOOOOOOO",
"OOOOOOOOOOOOOOOOOOOOOOOOOOOOOOOOOOOOOOOOOOOOOOOOOOOOOOOOOOOOOOOO"
};
