/* XPM */
static char *result[] = {
/* columns rows colors chars-per-pixel */
"64 64 213 2 ",
"   c #380808",
".  c #3B0B0B",
"X  c #3D0D0D",
"o  c #3E0E0E",
"O  c #202020",
"+  c #232323",
"@  c gray14",
"#  c gray15",
"$  c #282828",
"%  c gray16",
"&  c #2A2A2A",
"*  c #2C2C2C",
"=  c gray18",
"-  c #2F2F2F",
";  c #312D27",
":  c #383129",
">  c #332133",
",  c #352135",
"<  c #372137",
"1  c #3C213E",
"2  c #313131",
"3  c #323232",
"4  c gray20",
"5  c #343434",
"6  c #353535",
"7  c gray21",
"8  c #373737",
"9  c gray22",
"0  c #393939",
"q  c #3A3A3A",
"w  c #3C3C3C",
"e  c #3E3E3E",
"r  c #3F3F3F",
"t  c #400000",
"y  c #430000",
"u  c #460000",
"i  c #490000",
"p  c #4C0000",
"a  c #490C06",
"s  c #440B0B",
"d  c #4D0B0B",
"f  c #520000",
"g  c #550000",
"h  c #580000",
"j  c #5B0000",
"k  c #5E0000",
"l  c #560B0B",
"z  c #5E0B0B",
"x  c #460017",
"c  c #4B0013",
"v  c #4D0015",
"b  c #600000",
"n  c #610000",
"m  c #630000",
"M  c #640000",
"N  c #670000",
"B  c #680000",
"V  c #6A0000",
"C  c #6C0000",
"Z  c #6D0000",
"A  c #670B0B",
"S  c #700000",
"D  c #710000",
"F  c #730000",
"G  c #740000",
"H  c #750000",
"J  c #760000",
"K  c #780000",
"L  c #790000",
"P  c #7A0000",
"I  c #7C0000",
"U  c #7D0000",
"Y  c #7E0000",
"T  c #7F0000",
"R  c #680015",
"E  c #6A0017",
"W  c #770013",
"Q  c #730017",
"!  c #7C0017",
"~  c #750022",
"^  c #542A2A",
"/  c #5D2A2A",
"(  c #413A32",
")  c #553535",
"_  c #583535",
"`  c #5D3535",
"'  c #602A2A",
"]  c #662A2A",
"[  c #662F2F",
"{  c #603535",
"}  c #633535",
"|  c #663535",
" . c #693535",
".. c #6C3535",
"X. c #663E3E",
"o. c #693E3E",
"O. c #6C3E3E",
"+. c #6F3E3E",
"@. c #723535",
"#. c #723E3E",
"$. c #753E3E",
"%. c #7B3E3E",
"&. c #46423C",
"*. c #51483F",
"=. c #432143",
"-. c #402A40",
";. c #452A46",
":. c #463546",
">. c #4A354A",
",. c gray25",
"<. c #414141",
"1. c gray26",
"2. c #444444",
"3. c gray27",
"4. c #464646",
"5. c #484848",
"6. c #494949",
"7. c #4B4B4B",
"8. c gray30",
"9. c #4E4E4E",
"0. c gray31",
"q. c #515151",
"w. c gray32",
"e. c gray33",
"r. c #565656",
"t. c #585858",
"y. c #5A5A5A",
"u. c gray37",
"i. c #7B4444",
"p. c #606060",
"a. c #626262",
"s. c #646464",
"d. c #800000",
"f. c #810000",
"g. c #820000",
"h. c #830000",
"j. c #850000",
"k. c #860000",
"l. c #870000",
"z. c #880000",
"x. c #890000",
"c. c #8A0000",
"v. c #8B0000",
"b. c #8C0000",
"n. c #8D0000",
"m. c #8E0000",
"M. c #8F0000",
"N. c #880E0E",
"B. c #900000",
"V. c #910000",
"C. c #920000",
"Z. c #930000",
"A. c #940000",
"S. c #950000",
"D. c #970000",
"F. c #980000",
"G. c #990000",
"H. c #9A0000",
"J. c #9B0000",
"K. c #9C0000",
"L. c #9D0000",
"P. c #9E0000",
"I. c #9F0000",
"U. c #870017",
"Y. c #8C0013",
"T. c #8E0015",
"R. c #900017",
"E. c #9E0013",
"W. c #990017",
"Q. c #8C1313",
"!. c #A10000",
"~. c #A30000",
"^. c #A40000",
"/. c #A50000",
"(. c #A60000",
"). c #A70000",
"_. c #A80000",
"`. c #AA0000",
"'. c #AB0000",
"]. c #AD0000",
"[. c #AE0000",
"{. c #AF0000",
"}. c #B00000",
"|. c #B10000",
" X c #B30000",
".X c #B40000",
"XX c #B60000",
"oX c #B70000",
"OX c #B90000",
"+X c #BA0000",
"@X c #BC0000",
"#X c #BD0000",
"$X c #BF0000",
"%X c #A20017",
"&X c #B40017",
"*X c #C00000",
"=X c #C20000",
"-X c #C50000",
";X c #C80000",
":X c #CB0000",
">X c #CC0000",
",X c #CE0000",
"<X c #D10000",
"1X c #D20000",
"2X c #D40000",
"3X c #D90000",
"4X c #DD0000",
"5X c #E00000",
"6X c #E30000",
"7X c #E60000",
"8X c #E90000",
"9X c #EC0000",
"0X c #814A4A",
/* pixels */
"9 9 9 9 9 9 9 9 9 9 9 9 9 9 9 9 9 9 9 9 9 9 9 9 9 9 9 9 9 9 9 9 9 9 9 9 9 9 9 9 9 9 9 9 9 9 9 9 9 9 9 9 9 9 9 9 9 9 9 9 9 9 9 ;.",
"8.r q.5.5.5.5.7.q.5.5.5.5.5.7.q.2.w 5.5.5.5.5.5.7.e.e.e.e.e.q.5.5.5.5.5.5.5.5.7.e.e.e.e.e.e.q.5.5.5.2.9 9 w 5.7.e.q.5.5.5.5.2.( ",
"] 9X7X2X2X2X2X2X2X2X2X;XQ.5.7.%.9X7X2X2X2X2X2X2X2X2X2X2X2X2X2X2X2X2X2X;XQ.2.r %.9X9X9X8X5X5X5X5X5X4X2X2X2X2X<X;X;X;X-X@X@XXXQ.*.",
"@.6X=X}.OX*XM.}.*XF.$XZ.l 4 7.%.5X{.S.{.S.{.S.'.b. X!. X!.'.b.'.b.$X$XD.z 4 2.' ;X].=XXX=X}.XX|.l..XB.=XXXoXC.].H.B.@X^.$XH.A : ",
"..;XH.k.L.M.!.m.U L.g.Z l 4 7.$.,X{.z.M.L.g.U ^.D.P J.^.D.P J.D.U !.m.V d 4 7.$.;X^.H.J G L.g.J M.H.T M.^.L.M.H.T M.B.C D.Z l =.",
"..#Xk.^.D.P J.^.D.U B.f . 4 7.$.*XS.XXL.M.D.U L.M.D.U D.J j.k.D.P V.L V d 4 5...+XU Z.Z M.Z.G D.U H.k.L.M.Z.G !.V.k.H.k.D.N s =.",
" .$XH.T b.V.k.D.J M.D.M . 4 7.+.@X{.M.L.z.b.J.D.J g.U L.g.P V.T g.U D.M . - w | _.U H.k.L.T G D.S U ^.D.U L.M.^.H.k.B.C L.L s 1 ",
"| '.k.^.D.U !.m.P m.V f . 4 5.| $XoXM.D.U D.U D.U D.P A.g.F k.D.P V.L V d - w |  XJ.Z.Z M.H.T g.J j.k.L.M.Z.G H.T M.H.k.D.M . =.",
"| XXD.J I k F F k J g.M . - r X.F.m.S N j g.S J g.N g J g.J g.N j g.S M . - w | _.S V k S N j L g V M L g N j T k g J g.J H . 1 ",
") J M M j t t t t t t t . - w ) J M n h h h h h h h h f t t t t t t t t . - w _ T M M M M M M M M M n h h h h h h h h f t t . < ",
"5.<.* * * * * * * % O O + - r q.<.* * * * % O O O O + * % O O O + * * * * 4 7.8.6 * * * * * * * * * * % O O O O + * * * * * * < ",
"8.9 9 9 w 5.5.5.2.9 9 9 9 w 2.w 5.5.5.5.5.5.2.9 9 r q.5.5.2.9 w 5.5.5.5.5.7.8.w 7.e.e.e.r.u.s.a.y.e.q.5.4.e q 3.8.r q.5.5.7.8.-.",
"7X2X2X,X@X@X@X@X@X@X@X@X@X@XXXQ.7.q.@.9X7X2X2X2X2X2X<X;X;X;X;X;X;X-X@X@X@X@X@X@X@X@X@X@X@X@X@X@X@X@X@XXXQ.4.3.%.9X7X2X2X2X2X2X&X",
"(.z.C.`.V.x.~.h.A.C.K.K (.M.c.o w 7.%.>Xd.XX.Xb./.Z S.{.z.F.@XJ.L.j.T M.L.M.L.M.H.B.[.Y oXb.!.$X@X^.$Xc.o w 2.] 6X.Xx.(.C.(.C.W.",
"M.L.M.H.T z.T G L.T Z M.^.D.M . 4 5...:XI.U H.k.^.L.M.Z.G D.Z Z M.H.k.H.k.Z.G ^.L.T G L.M.D.J M.D.U D.M o w 7.#.=X~.k.L.j.k.!.U.",
"U ^.L.b.v.G H.T z.b.v.G L.g.M . - w ..+XU L.b.A.z.T Z z.g.U L.T G L.j.J V T z.M.B.M j.k.D.U D.U ^.D.S M . 2 1. ..Xk.^.^.H.k.H.Q ",
"L.z.M.L.j.I T j.k.!.v.G Z.N M . - w ..+XU ^.H.k.Z.Z M.Z.N U Z.Z M.H.T j.k.Z.G L.I C Z.G D.J g.U D.U D.M . - w  .=X~.k.H.k.!.V.Q ",
"U Z.G D.J j.h.v.G Z.Z M.^.D.M . 4 7.$.:XG.C H.k.L.T Z I M g.Z G L.j.F n k.Z.Z I M M.Z.Z M.D.J M.D.U D.M   # w } ~.k.^.B.C H.T ! ",
"d.K.N N h L P m.P m.V B m.S M . 4 7.O.].D.J I k P m.J T N J I k P m.P v.Z g.J z.I B m.S J L g P m.J g.M   $ 3.O.].H.L V k P m.E ",
"y p p p p p p p p p p p i t t o w 7.o.Z.M M M M M M M M M M M M n h h h h h h h h h h h h h h h h h f t   & 2.^ Z.j i j t i j x ",
"* * % + * * % O O + * * % O + - w 2.w 2.8 3 * * * * * = 5 6 9 8 3 * * % O O O O + * * % O O O + * * * * - w 7.q.<.* * * * * * 1 ",
"e.q.2.9 w 7.8.r 8.w 5.2.9 9 9 w 5.7.q.5.5.4.e q e q e q 1.5.5.7.8.r q.4.e 9 9 q ,.1.5.7.0.e 9 q 1.5.5.7.q.7.8.r 0.e q 3.q.5.5.*.",
"%.9X7X2X2X2X2X2X2X,X@X@X@X@X@X@X@X@X@X@X@X@X@X@X@X@XXXQ.7.e.%.9X7X2X2X2X2X2X2X2X2X2X,X@X@X@X@X@X@X@X@X@X@X@X@X@X@X@X@X@X@XXXQ.*.",
"%.1XC. X'.b.'.b.'.x.(.C.(.C.XXoXC.(.C.(.S.OXK.K XX|.M o w 7.%.5X_.c.;X).(.M.).(.C.`.P.~.J G L.g.J M.H.T M.!.A.M.H.T M.B.C c.. : ",
"] 4X(.M.!.J.H.L J M.^.L.b.A.M.L.T G D.U L.T Z M.D.d.Z.. 4 8.i.,X XJ.Z.G Z.Z g.P A.T G Z.Z M.Z.G D.U H.k.L.M.Z.G !.V.k.H.L M . : ",
"| /.G ^.D.J I C Z.G D.U L.b.J.Z.Z M.D.J M.L.T V k.D.M . 7 t.0X,X'.k.H.k.Z.G D.P J.H.k.H.k.L.T G D.S U !.m.P A.M.^.H.k.B.k M . < ",
"| OX(.M.n.m B.k J M.L.g.F k.H.T T V k.Z.G L.T G D.V f . 7 r.i.+XU D.P A.T Z b.m.U Z.Z T Z M.H.T g.J j.k.L.M.Z.G H.T M.H.L M . < ",
"+._.Z G n.j j.k.Z.G B.C Z.G L.T Z M.L.T G Z.Z j.I x.Z.. 4 7.$.<X|.U D.U L.M.L.g.U Z.G B.k S N m n.m B.C n.m ^.L.T k g J g.M . =.",
" .$XZ.N S S V k N g S J T Z g.S J g.S Z N P m.P m.S M . - r #.$XD.P m.J I k S S S Z Z g.J L m B.k U n.g J L m B.C n.m D.S M . < ",
"{ !.v.M M M M M M M M M M M M M k p p p p p p p p i t . - r o.Z.M M M M M M M M M M M M M n h h h h h h h h h h h f u n F f . < ",
"5.2.6 * * * * * * * * * * * * * * * * - 9 9 6 * * * * * 4 5.5.<.* * * * * * * % O O O O + - 9 9 6 % O O + * * * * * * * * * * 1 ",
"e.e.e.e.q.5.2.w 2.9 9 w 7.t.s.p.e.e.q.5.5.4.,.e 9 q e 9 q 3.q.5.5.7.8.r q.7.q.4.e q e q 1.7.e.q.5.4.e q 1.5.5.7.8.r q.5.5.7.8.;.",
"@X@X@X@X@X@X@X@X@XXXQ.2.r $.2X2X2X2X2X2X2X,X@X@X@X@X@X@X@X@X@X@X@X@X@X@X@X@XXXQ.7.e.#.<X7X2X2X2X2X2X2X2X2X,X@X@X@X@X@X@X@X@X@X%X",
").].).`.^.=X}.XX$Xc.o w 2.' ;XZ.G D.U ^.Z.G L.M.^.D.U L.T G ^.Z.G ^.D.U H.k.c.o w 7.$.;XH.k.D.U ^.Z.G H.T j.k.D.U L.M.H.k.D.U R.",
"H.T M.!.J.H.k.L.g.M . 4 7.$.oXG H.T M.H.k.!.m.U L.z.g.J z.M.L.T G D.J M.Z.G c.o r e.$.;XB.C D.U L.T G L.M.H.T z.b.m.P V.h.A.g.E ",
"j.k.!.V.k.H.h.J.D.M . 4 2.' oXG ^.H.h.J.D.U D.U L.M.B.C n.j z.M.L.g.P J.H.k.c.o r t.0X;XH.k.D.U L.M.L.M.^.H.k.D.P A.M.!.V.k.D.~ ",
"L.j.k.!.J.!.V.T g.M o w 7.$.-Xv.G H.k.H.F B A.z.z.g.J M.Z.G L.T Z b.m.J M.H.Z o r t.0X#Xk.^.D.U Z.G ^.H.I k.H.k.L.b.F.A.j.L J ! ",
"L.j.k.H.k.H.h.J.D.M o w 5...oXG H.F B J.D.J z.M.L.M.D.J L f D v.G !.m.U H.k.c.o w 7.#.$XH.k.^.D.U L.z.j.k.H.k.D.P A.M.H.T M.D.E ",
"S J b.m.S P m.S S M o w 5.` v.G ^.B.C H.L U D.U Z.G B.M T G L.T D m.P J.Z.V Z . 4 7.#.$XB.C D.U ^.L.M.L.M.H.k.D.P m.P V.k.^.D.E ",
"t y p p p p p p i t . 4 5.{ Z.M M M M M M M M n h h h h h h h h h h h h h f t . 4 5.{ Z.M M M M M M M M M M M M M M n h h h f x ",
"* * * * * * * * * * * 4 7.q.<.% O O O + * - 9 9 6 % O O O O + * * * * * * * * - w 5.5.<.* * * - 9 w 2.6 * % O O + * * * * * * < ",
"q.7.8.w 2.9 w 5.2.9 9 9 w 5.2.9 9 w 5.5.5.5.7.e.q.5.2.9 9 r q.5.5.7.8.w 2.w 2.w 5.7.q.7.8.r q.7.r.u.p.w.7.5.2.r q.7.q.7.8.r 8.-.",
"] 7X2X2X2X2X2X2X,X@X@X@X@X@X@X@X@X@X@X@X@X@X@X@X@X@X@X@X@X@XXXN.r 8.] 9X7X2X2X2X2X2X2X2X,X@X@X@X@X@X@X@X@X@X@X@X@X@X@X@X@XXXQ.>.",
"$.;XL.z.M.Z.G ^.H.h.J.H.k.D.J M.Z.G H.k.L.M.Z.G Z.G ^.H.L U c.o w 7.%.3X^.Z.G Z.G B.C D.U B.C L.I B A.g.U L.j.k.H.h.m.J M.c.. , ",
"..;XZ.G L.T G L.b.V.k.Z.Z I C !.v.G B.M b.A.T G H.k.H.k.D.P f.. 4 5...*XM.Z.Z T V F M I B V.k.B.C Z.G D.J g.U L.j.h.J.Z.Z H . , ",
"..*XT G Z.Z g.Z G Z.G L.j.T M.Z.D A.z.I n k.n.b l.M T Z z.g.M . - w ..*XM.Z.M Z M.H.F C H.F B J.B.C D.S U D.U H.k.D.J T G c.. , ",
"' ;XL.M.L.T G L.j.h.J.H.k.B.M M.Z.G B.M M.B.B J.H.k.^.^.D.F Z . - w ..;XZ.G L.T G B.C D.P V.I F M T G H.T b.A.b.V.L U L.M.c.. , ",
"$.;XZ.Z M.Z.G Z.G Z.G Z.G D.U Z.M G B.M j.k.H.T T D v.Z g.U c.  # r $.;XZ.M G Z.V F C B.C B.B l.C Z.Z g.U D.F k.H.h.A.T N M . > ",
"/ $XZ.G Z.Z g.J b.V.k.L.z.z.M.!.v.Z j.F j G n.m D.P V.k.D.U c.  # r #.|.U Z.Z T G B.n k.H.F B m.J T G D.U D.U H.h.m.U Z.G c.. , ",
"o.Z.M M M M M M M M k p p p p p p p p p p p p p p p p p p p i . 4 7.o.Z.M M M M M M M M n h h h h g p p p p p p p p p p i t . , ",
"w <.* * * * * * * * * - 9 9 6 % O O O + * * % O O O + * % O + * 4 2.w <.* * * * * % O O + = 6 8 3 % + * * * % O O + * * * * * > ",
"8.r 8.r q.7.q.5.5.5.7.t.s.p.q.7.8.r q.7.q.4.e 9 9 q 1.7.q.5.2.w 5.7.8.r q.5.5.5.5.5.5.5.6.9.e.e.w.7.5.5.5.2.7 * O @ 3 w 5.7.q.:.",
"2X2X2X2X,X@X@X@X@X@X@X@X@X@X@X@XXXQ.7.q.@.9X7X2X2X2X2X2X2X2X,X@X@X@X@X@X@X@X@X@X@X@X@X@X@XXXQ.2.r %.7X2X2X2X2X,X@X@X@X@X@X@X@XE.",
"k.B.C ^.Z.D v.G H.B..Xk.Z.G H.k.c.. 4 5...;X^.^.^.Z.G n.m H.k.Z.G Z.G !.J.Z.G Z.G B.C D.Z j o w 7.$.;XZ.Z M.B.C D.U D.U Z.G D.R ",
"H.I k.H.k.Z.D V.J G B.n J Z T Z H . 4 5...#Xk.D.U Z.N N h h.V.k.L.T Z b.v.V T g.J I C Z.G c.X 0 7.$.oXG B.C D.U D.J M.D.U L.L c ",
"H.F n k.Z.D v.V k.H.F C L.T D V.Z . 4 4.[ #XI L U Z.V I k.B.C n.m ^.Z.G Z.G Z.Z I M z.T N M . 4 7.$.oXG D.S U ^.L.g.J g.Z N J W ",
"h.l.B v.M G Z.G H.k.B.n L Z G Z.j . 4 4.[ ;Xn.g U Z.G n.m H.h.v.G Z.Z j.J G Z.G L.I k P v.j . 4 7.$.;XZ.n C L.g.S U D.U Z.N U Y.",
"G H.k.Z.G Z.Z M.Z.G H.F M M.H.T H . 4 4.[ |.m ^.Z.G H.L J I n S m Z.G Z.V I J Z g.V M g.Z j . 4 5...oXG L.M.D.U L.g.S V C D.U T.",
"G H.I J D F.v.D v.V F C Z.G Z.D f.. 4 5...|.m D.U Z.V I T L b v.Z L m H.J G L.T G B.C B.M H . - w ..oXG B.k V C D.U D.V j G n.v ",
"h.l.C Z.M Z T V I k.B.C Z.N J j.Z . 4 7.#.$Xn.g U Z.G n.j T G Z.G D.Z G Z.V k.Z.Z g.J T Z H . - w  .[.M n C B.C D.U D.U Z.G D.R ",
"p p p p p p p p p p p p p p p i t . 4 5.{ c.t t t t y p p p p p p p p p p p p p p p p p i t   & 7.o.c.t y p p p p p p p p p p a ",
"* * * * * * * * * * * * * * * * * * 4 7.q.2.8 5 3 * * * * * * * * * * * * * % O O O O + % O O # w 5.<.* * * * * % O O O O + * ; ",
"r 8.r 8.9 9 w 5.5.5.5.7.e.8.w 5.5.5.7.e.e.e.e.q.5.5.7.q.5.5.7.q.5.2.w 5.5.4.e 9 q e 9 q 1.4.e q 3.q.5.2.r q.5.5.5.4.e q 1.5.5.&.",
"e.e.e.e.e.e.e.e.e.e.e.e.e.e.e.e.e.e.e.e.e.e.e.e.e.e.e.e.e.e.e.e.e.e.e.e.e.e.e.e.e.e.e.e.e.e.e.e.e.e.e.e.e.e.e.e.e.e.e.e.e.e.e.t."
};
