/* XPM */
static char *cb268d1ba40a4c76c668e1e37b84470b59qgcWxRyfhI2wyi[] = {
/* columns rows colors chars-per-pixel */
"64 64 96 2 ",
"   c black",
".  c #010101",
"X  c #020202",
"o  c gray1",
"O  c #040404",
"+  c gray2",
"@  c #060606",
"#  c #070707",
"$  c gray3",
"%  c #090909",
"&  c gray4",
"*  c #0B0B0B",
"=  c #0C0C0C",
"-  c gray5",
";  c #0E0E0E",
":  c gray6",
">  c #101010",
",  c #111111",
"<  c gray7",
"1  c #131313",
"2  c gray8",
"3  c #161616",
"4  c gray9",
"5  c #181818",
"6  c #191919",
"7  c gray10",
"8  c #1B1B1B",
"9  c gray11",
"0  c #1D1D1D",
"q  c #1E1E1E",
"w  c gray12",
"e  c #202020",
"r  c gray13",
"t  c #222222",
"y  c #232323",
"u  c gray14",
"i  c #252525",
"p  c gray15",
"a  c #272727",
"s  c #282828",
"d  c gray16",
"f  c #2A2A2A",
"g  c gray17",
"h  c #2D2D2D",
"j  c gray18",
"k  c #2F2F2F",
"l  c gray19",
"z  c #353535",
"x  c #3F3F3F",
"c  c #C6C6C6",
"v  c #CDCDCD",
"b  c #CECECE",
"n  c #D0D0D0",
"m  c gray82",
"M  c #D2D2D2",
"N  c gray83",
"B  c #D5D5D5",
"V  c gray84",
"C  c gray85",
"Z  c #DADADA",
"A  c gray86",
"S  c gainsboro",
"D  c #DDDDDD",
"F  c gray87",
"G  c #DFDFDF",
"H  c gray88",
"J  c #E1E1E1",
"K  c #E2E2E2",
"L  c gray89",
"P  c #E4E4E4",
"I  c gray90",
"U  c #E6E6E6",
"Y  c #E7E7E7",
"T  c gray91",
"R  c #E9E9E9",
"E  c #EAEAEA",
"W  c gray92",
"Q  c #ECECEC",
"!  c gray93",
"~  c #EEEEEE",
"^  c #EFEFEF",
"/  c gray94",
"(  c #F1F1F1",
")  c gray95",
"_  c #F3F3F3",
"`  c #F4F4F4",
"'  c gray96",
"]  c gray97",
"[  c #F8F8F8",
"{  c #F9F9F9",
"}  c gray98",
"|  c #FBFBFB",
" . c gray99",
".. c #FDFDFD",
"X. c #FEFEFE",
"o. c white",
/* pixels */
". . . . O . . a ..............R . . . . . . . > ..............) O . . . . . . * ................= O . O . . . . ~ | ............",
"O . O . O . O d ..............Y . . . . . . . 4 ..............) . . . . . . . O ................= . . O . . O . ~ ....| ........",
". . . . O . . a ..............Y . . . . O . . > ..............) . . . . . . . * | | ........| | = . . . . . . . R | ..| ......| ",
". . . . . . . a ..........| ..Y . . . . . . . > ..............) O . . . . . O O ................= . . . . . O . ) ..............",
". . . . O . . a ..............Y . . . . O . O > ..............) O . . O . . . * ..| ..........| = O . O . . O . ~ ....| ........",
". . . . . . . a ..............R . . . . . . . > ..............) . . . . . . . O | ..............* . . . . . . . ~ ....| ........",
". . . . O . . a | ..| ....| ..Y . . . . O . O 4 ..| ........| ~ O O . O O . O * | ..............= . O O . O O O ) ..............",
"* * = * = * * k ~ ) ~ ) ~ ~ ~ C * * * * * * = 6 ) ~ ) ) ~ ) ~ Y 4 > > 4 > > > 6 Y Y R Y Y R Y Y 0 4 > 4 > > 4 > B Y Y Y Y R Y R ",
"..............H O . O . . O O 6 ..............~ . O . . . . O = | ..........| | O . . . . . . . ) ....| ....| ..6 . . . . . . . ",
"..............H O . . . . O . 6 ..............R . . . . O . O = | ............| * . . . . . . O ) ..............6 . . . . . . O ",
"..............H . . . . . . . 6 ..............~ . . . . . . . = | ..........| ' O . . . . . . . ) | ..| ....| ..6 . . . . . . . ",
"..............F . . . . . . . 4 ..............~ . . . . O . . = ................* . . . . . . . ' ..............6 . . . . . . . ",
"....| ..| ....F O . . . . O . 6 | ..| ..| ....R . O . . O . . = | ............' * . . . . . . O ) | ..| ........6 . . . . O . O ",
"..............H . . . . . . . 4 ..............~ . . . . . . . = | ......| ..| | O . . . . . . . ) | ..| ....| ..6 . . . . . . . ",
"| | ....| ....F O . O . . O . 6 | ..| ....| ..R O * . O O O O = | ............| * O O O O O O O ) ..............0 . O O . O . O ",
") ) ~ ' ~ ) ) M = = > = = = = a ~ ) ~ ) ) ~ ) F > > > > 4 = 4 0 H R R Y Y Y Y H 4 > > > > > > 4 C Y Y Y R Y Y R d = = > = > = > ",
". . . . . . . a ....| ....| ..Y . O . . . . . 4 ..| ........| ) O . . O . . O * ..............| = . . . . . . . ~ | ............",
". . . . . . . a ..............R . . . . . . . = ..............) . . . . . . . O ..............| = . . . . . . . ) ..............",
". . O . O . . d ..............Y . O . . O . O 4 ..| ....| ..| ) O . . . . . O * | | ........| | = . . O . . O . ~ ....| ......| ",
". . . . . . . a ..............R . . . . . . . > ..............' . . . . . . . O ................= . . . . . . . ~ ..............",
". . . . O . . d ..........| ..R . O . . O . O 4 ..............) O O . O O . O * | | | | ....| | > O . O . . O . ) ....| ........",
". . . . O . . a ..............R . . . . O . . > ..............) O . . . . . O * ................* . . . . . . . ~ ..............",
". . . . . . . a ..............R . . . . . . . > ..| ....| ....) . . . . . . . * ................= . . . . . . . ~ ....| ........",
"6 6 6 6 0 6 6 x H Y H Y H H H v 6 0 6 6 0 4 0 k H F H H F H H B a e e a e 0 a d C C F F F F C F k e e a e e a e M F Y F H H H H ",
"| ............H O . O . . O . 6 | ........| ..R . O O . O . O = | | ..........| * . . . . . . O ) | | | ....| ..6 . . . . O . . ",
"..............H . . . . . . . 4 ..............~ . . . . . . . = | ............| * . . . . . . . ) ....| ....| ..4 . . . . . . . ",
"....| ........H O . O . O O O 6 ..............R O O . . O . O > | ............| * O . . . . . O ) | ........| ..6 . . . . O . . ",
"..............H . . O . . . . 6 ..............~ . . . . . . . = ................O . . . . . . . ' ..............6 . . . . . . . ",
"....| ........H O . O . . . . 6 ..............~ . O . . . . . = | ............| * . . . O . O O ) | | | ....| ..6 O O . . * . O ",
"..............H . . . . . . . 6 ..............R . . . . . . . = | ............| O . . . . . . . ) ....| ........4 . . . . . . . ",
"..............H . . O . O O . 6 ..............~ . O . . O . O > | ..............* O . O O . . O ) ..........| ..6 . . . . O . . ",
"H Y H Y Y Y H c e 0 e 0 0 e 0 z H Y H Y H H Y M 0 e e 0 e 0 0 d C F F C C F F C l d d d d d d d v C F C F F C F x d a a a d a d ",
". . . . O . . a ..........| ..Y . . . . . . . > ..| ....| ....) . . . . . . . * | ............| = O . . . . . . ~ ..............",
"O . O . O . . d ..............Y O . . . O . O 4 ........| ..| ) O . . O . . . * ................= O . O . . O . ~ ..............",
". . . . O . . a ..............R . . . . O . O > ..............) . . . . . . . * | ............| = O . O . . O . R | ..| | ..| | ",
". . . . O . . a ..............R . . . . . . . > ..............) O . . . . . O O ................= . . O . . O . ) ..............",
". . O . O . . a ..............Y O . . . O . . 4 ..| ....| ....) O . . . . . O * | ............| > O . O . . O . ~ ....| ......| ",
". . . . . . . a ..............R . . . . . . . > ..............) . . . . . . . O | ......| ....| * . . . . . . . ~ ....| ....| ..",
". . . . O . . a ........| | | Y . . . . O . O > | | ....| | | ) O O O O O . O * ..............| = O . * . O O O ~ ..............",
"= O * * = * * k ) ' ) ' ) ) ) F * * O * = O * 6 ) ) ' ' ) ) ) R > > = > > = > 4 H R R Y R R Y Y 0 > = > = > > > C R ~ Y ~ R R R ",
"| ..| ........F . . . . . . . 4 ..........| ..R . . . . . . . = | ............| O . . . . . . O ' ..............6 . . . . O . O ",
"....| ......| H . . O . . . . 6 ........| | ..R . O . . . . . = ................* O . . . . . O ) ..............0 . . . O O . O ",
"..............H . . . . . . . 4 ..............~ . . . . . . . = | ....| ....| ' * . . . O . . O ) | ........| | 6 . . . . . . . ",
"..............H . . . . . . . 6 ..............~ . . . . O . . = | ............| * O . . . . . O ) ..............6 . . . . . . . ",
"....| ........H . . O . . . . 6 ..............R . O . . O . O = | | ..........| O O . . O . . O ) | ..| ........6 . . . . O . O ",
"..............H . . . . . . . 6 ..............~ . . . . . . . = | ............| O . . . . . . . ~ ....| ....| ..6 . . . . . . . ",
"| ..| ........H . . . . . O . 6 | ..| ..| | ..~ O O O . O . . = ................= O . . O O . O ' ..............6 . O O . O . . ",
") ' ~ ) ) ) ) B * * = * * = * e ) ' ~ ' ) ) ) F > > = = > = > 6 Y Y R R R R R R 4 > > > > = > > F R R R ~ R Y R a = = = = = * > ",
". . . . . . . a | | | ..| | | H . . . . . . . 4 ........| ....) O . . O . . O * ..............| * . . . . . . . ~ ....| ........",
". . . . . . . a ..............R . . . . . . . > ..............' . . . . . . . O | ............| = . . . . . . . ) ..............",
"O . O . O O . d | ............Y O O . . O . O 4 | | ....| | | ~ O . . . . . O * | ............| = . . O . . O . R | ..| ........",
". . . . . . . a ..............R . . . . . . . > ..............) . . . . . . . O ..............| * . . . . . . . ) ..............",
". . . . O . . a ..........| ..Y . O . . O . O 4 ..| ..........) O O . O . O O * | | | | ....| | > O O O . O O O ~ | ..| ........",
". . . . . . . a ....| ........Y . . . . O . . > ..............) O . . . . . . * | ............| = . . . . . . . R ....| ........",
". . . . O . . a ..............Y . . . . . . . > ..| ..........) . . . . . . . * | ..............= . . O . . O . ~ ....| ........",
"6 6 6 6 0 6 6 x H R H Y Y H Y v 6 0 6 6 0 6 0 d H F H Y F H H B a e e a a e e d C F F F F F F C k e e e 0 e a e M H Y H H Y H Y ",
"..............F O . O . . . . 6 ..............~ . . . . . . . > | ..............* . . . . . . O ) ....| ......| 6 . . . . O . . ",
"..............F . . . . . . . 6 ..............~ . . . . O . O = | ............| O O . . . . . . ) ..........| ..6 . . . . . . O ",
"....| ..| ....H O . . . . . . 6 ..........| ..R . O . . . . . = | | ..........| * . . . . . . O ) ............| 6 . . . . O . . ",
"..............F O . . . . . . 6 ........| ....~ . O . . . . O = | | ..........| O . . . . . . . ) ..........| ..6 . . . . . . O ",
"....| ..| ....F . . . . . . . 6 ..............~ . O . . O . . = ..............| O . . . . . . O ~ ..............6 . . . . O . . ",
"..............H O . . . . O . 6 ..............R . . . . . . . = | ............| * O . . . . . . ) ....| ........6 . . . . . . O ",
"....| ........F O . O . . O . 6 ........| ....~ . . . . O . . = | ............| O . . . . . . O ) ..........| ..6 . . . . O . . ",
"..............F . . . . . . . 6 ..........| ..~ . . . . . . . = | ............| * . . . . . . . ) ....| ........6 . . . . . . O "
};
