/* XPM */
static char *result[] = {
/* columns rows colors chars-per-pixel */
"64 64 147 2 ",
"   c #3C3C04",
".  c #24241C",
"X  c #2B2A1C",
"o  c #222222",
"O  c #292521",
"+  c #2C2C2C",
"@  c #3E3D26",
"#  c #343434",
"$  c #3C3934",
"%  c #393939",
"&  c #414100",
"*  c #41410A",
"=  c #514D04",
"-  c #545006",
";  c #585400",
":  c #57530B",
">  c #5A560D",
",  c #5B580F",
"<  c #656204",
"1  c #696504",
"2  c #6D6900",
"3  c #6B670A",
"4  c #6D6A0C",
"5  c #706C00",
"6  c #706D0F",
"7  c #767301",
"8  c #797400",
"9  c #7D7B00",
"0  c #7E7E0B",
"q  c #666219",
"w  c #726E10",
"e  c #757114",
"r  c #444431",
"t  c #484731",
"y  c #4E4C31",
"u  c #47473E",
"i  c #52523E",
"p  c #5D5B3E",
"a  c #454545",
"s  c #484642",
"d  c #4D4843",
"f  c #4A4A4A",
"g  c #524B45",
"h  c #54524B",
"j  c #585749",
"k  c #5E5E49",
"l  c #535353",
"z  c #5F5F57",
"x  c #5B5B5B",
"c  c #625F5A",
"v  c #626257",
"b  c #6C6C57",
"n  c #66615C",
"m  c #737257",
"M  c #646464",
"N  c #6C6A63",
"B  c #6C6C6C",
"V  c #757561",
"C  c #76756E",
"Z  c #7C7C6C",
"A  c #737373",
"S  c #7C7C7C",
"D  c #838300",
"F  c #8B8B02",
"G  c #80800E",
"H  c #969600",
"J  c #9B9B00",
"K  c #94940D",
"L  c #858512",
"P  c #898916",
"I  c #8B8B18",
"U  c #9A9A12",
"Y  c #A3A200",
"T  c #ADA600",
"R  c #A7A00B",
"E  c #AAA30E",
"W  c #B3AB00",
"Q  c #BAB200",
"!  c #BEB70D",
"~  c #ADA610",
"^  c #AFA813",
"/  c #A3A31C",
"(  c #B1AA15",
")  c #B5AE18",
"_  c #B9B21D",
"`  c #C5BE00",
"'  c #C2BB11",
"]  c #CBC300",
"[  c #CFC50A",
"{  c #D6CC00",
"}  c #D4CA0E",
"|  c #DDD200",
" . c #C7C016",
".. c #CDC61C",
"X. c #D6CC10",
"o. c #D9CE13",
"O. c #DCD216",
"+. c #E4D800",
"@. c #E5DB1F",
"#. c #F6EE1C",
"$. c #FCF420",
"%. c #F8F139",
"&. c #84836C",
"*. c #8A886C",
"=. c #85817D",
"-. c #88837E",
";. c #8C8C79",
":. c #929179",
">. c #989679",
",. c #838383",
"<. c #8D8B87",
"1. c #8B8B8B",
"2. c #949484",
"3. c #9D9C84",
"4. c #929292",
"5. c #9D9A95",
"6. c #9A9A9A",
"7. c #A2A084",
"8. c #A4A492",
"9. c #ACAB92",
"0. c #ADAC9C",
"q. c #B0AE92",
"w. c #B3B296",
"e. c #B5B49C",
"r. c #BAB99C",
"t. c #A4A4A4",
"y. c #AAAAAA",
"u. c #B5B5A6",
"i. c #BBBBA6",
"p. c #B3B3B3",
"a. c #BCBCBC",
"s. c #C3C2A6",
"d. c #C6C6B4",
"f. c #CCCBB4",
"g. c #CDCCBF",
"h. c #D7D6BF",
"j. c #DBD9BF",
"k. c #C3C3C3",
"l. c #C8C6C2",
"z. c #CCCCCC",
"x. c #D4D4D4",
"c. c #DBDBDB",
"v. c #E5E3CD",
"b. c #E8E7CD",
"n. c #EBE9CD",
"m. c #E3E3E3",
"M. c #EBEBEB",
/* pixels */
"+ + + + + + + # + + + + + + + + + + + + + + + + + + + + + + + + + + + + + + + + + + + + + + + + + + + + + + + + + + + + + + + + ",
"l l l l l l l l l l x h.] ] ] ] ..c.c.c.c.c.h.W W _ k.o a 1.p.c.c.c.c.h.] ] ' A 1.,.f + a a a f f a f f a f l l l l l l l l l j ",
"l l l l l l l l l l x c.f.W W W ( 6.9.] ..z.k.s.]  .S o a 4.k.y.:.' &.] J J H 4 l l % o a V J J J U S S S B M a f f f a f a f h ",
"1.4.1.1.1.1.4.S + l x c.f.W W T e 3.] ` / k.k.u.F ~ x o a p.x.t.1.&.' Z 5 D 4 x A l % o r Y ] | H e 4.p.s.] ] ' M m ]  .1.1.1.=.",
"z.e.) p.p.t.1.S o l x c.f.J J D e 7.` / y.t.6.1.;.K f o a 4.a.1.1.4.y.6.b D 4 l B l # o t Y | Y 4 M ,.a.j.] +.[ f b ] ` L ,.x.a.",
"y.9.W R l A S M + l x c.i.H D 4 A S 6.t.2.U 1.A ;.0 l o % l 9.` / t.1.1.C : x B l f # o t Y { 4 B 4.r.| ' &.J F f b J D 3 l 1.<.",
"p.2.3 x 1.1.1.M o f x c.d.H 5 w ,.t.6.6.3.U 1.4.A ,.l o % l Z J F ~ 4.t.t.B M B % % # o r F H 4 M *.] ] ' Z 7 K l B M a f b ~ C ",
"p.y.S 4.t.1.B f o % x c.l.1.S ,.6.t.t.k.Z L 6.t.1.,.f o % l A 4.t.1.t.1.1.4.6.B % % % + r D 4 B 1.1.&.' S Z 2 3 f A S 1.A Z G z ",
"6.y.t.B A ,.f a o # x c.a.y.4.S 7.' 6.6.1.4.1.4.t.,.f o + f l A B l l % % # % % % # o % % S B 1.,.y.t.S 1.t.A f A 4.4.1.4.t.S z ",
"1.1.1.1.B l a a o + x c.m.t.S 6.&.] E A 1.1.1.t.1.,.f + o f a % % % % % % # % # o o % % a ,.p.y.;.K ,.4.S ,.4.B A 4.1.6.1.4.t.-.",
"B A B B l a % # o + x c.z.1.,.6.3.` K S t.4.t.4.t.,.l + o % a % + + o o o o o + + % % % a ,.y.Z K l 4.q.X.S ,.A 1.A 4.M A 1.M n ",
"l l f a a o o o o # l p.x.y.4.&.] W K A 6.1.1.S ,.A x # + % a f f f A t.y.y.y.c.g.1 % % % S p.1.A M M &.K % l x M a f f f a f d ",
"o o o o o + + + # % x 6.c.l.1.S ;.U A 1.4.t.S ;.U ,.l # o % l A w.$.%.c.c.c.x.x.j.` 1 % % x ,.A M M l u = % % % % # # + + + + + ",
"+ + + + + + + + + % x A y.z.4.t.1.1.4.t.1.1.6.,.M M l # o + f q.#.` U 1.4.t.4.8.K N - o % % % % % % % % % % # + + o o o o o o X ",
"% % # % % % % % % % l l 4.z.t.4.t.4.A 4.1.S 4.8.0 l l # o # l 9.` L ,.t.>.+.o.;.K j < % % + + + + + + + + + + % # % % % % % # $ ",
"l a % # % % % % % % l f S p.4.t.3.] U A t.4.t.;.4 l B a o # l q.{ L S :.] X.S ;.0 h - % f f l l l h o a a f f f a f a f f a f s ",
"6.6.6.6.6.6.6.6.,.+ O l l k.u.L ;.J P t.A 1.1.1.B M l f o o p | X.S ,.9.| } A ;.4 f % % p | W E M l f l ,.6.6.6.6.4.6.6.6.6.4.1.",
"f.` _ c.h.` K B B # + l l 4.u.4 B 4.M 1.A A t.,.A 1.B a o o p X.S 1.S ;.H 4 B t.,.l % % t W T G x # l 1.s.] ] ..z.( y.9.] ] ..l.",
"] T F W W H 3 x B # + l f A 4.M B 1.1.A ,.x 1.B l B l a o o l ,.1.S >.} M M M l l l # o t J 0 l x o l 3.] ] ' &.| U =.9.] H G N ",
"T P 8.W H D 4 l B # o f l l 6.4.A ,.M A A B B x B l a o o o % t.1.A 1.B l % # # % % # + b J G B f o l 3.] ! ,.3.J U =.3.` J G N ",
"P t.:.W H 5 4 l l # o f l f M l l # % # % # # + o o o o o o % 1.B # % # o o o o o o o o B ;.L 1.l o l 6.t.S 1.3.K S ,.9.] H P <.",
"t.4.8.Y 4 l x ,.l # o f l a + + + + o o o o o o o o o o o o + % l # o o o o + + + + + % 4.t.1.6.l o l 4.t.6.t.6.t.S t.,.8.H 6 N ",
"4.8.S S x A 1.B l # o % l l a # o o o o o o o o a f a a f f l 1.1.3.J J J J U S f + a B k.x.y.p.x + l 1.1.q.O.6.4.t.6.y.t.S S 1.",
":.` K S 1.1.1.c a % o a :.] ] W U 1.p.p.y.x % f b Y ] ] ] ) x.M.M.b.] ] ] ] T J 7 o a 1.c.k.x.t.M o f ,.6.t.6.1.t.7.O.4.,.t.6.5.",
";.H I t.1.1.1.x f # o y ] W T U S S S S A % l j Y ] R A 6.y.t.6.y.2.U Z J F H D < o a 6.x.t.y.s.[ O p O.y.6.t.7.+.X.,.t.6.6.y.<.",
"2.P 1.1.1.,.B l # # o t W H G M M M M M x o l l t.m.6.3.U 7. .y.6.4.,.8.L Z H 2 = o a >.o.1.1.8.F o i H > B m | T D 2 > B B x N ",
"M M M M M l a % % # o y T G M B 2.D H 4 x + f l t.n.o.t.3.Q P 3.]  .t.2.P 8.G v = o a :.E A 4.5.< o u = % % u ; ; ; : a f l l h ",
"l f f % % # o o o + + t T 0 B 6.4.Z D 6 x o a l t.b. .9.] K ,.7.` P 6.t.4.4.S z   o a 1.A 4.p.g.= + a + + o o o o o o o o % % d ",
"o o o o o o + + + f f x c.B 6.8.P ;.D 4 x o % l t.v.^ 3.Q e ,.t.6.t.4.&.W L S z   o y @.m.y.x.6.f o a % % % % + + + o o o o o O ",
"f x M A 1.6.1.1.1.,.f % c.6.6.8.L 1.M S z   o l t.v.( 8.H w ,.4.,.6.t.3.T L A f   o y _ M.k.k.6.f + a % % % % % % # % % % % % % ",
"B 4.e.W ~ 4.t.t.y.6.x % m.y.k.-.e t.1.A z   o l t.m.9.] H w S 6.y.t.6.8.Y L ,.j   X 7 ( x.t.9.R l o d 7 J J J W T D 0 a f f a h ",
"B u.W T G B y.y.y.6.a % m.y.6.t.S 1.S 1.z   + l S 3.] H w A ,.t.6.4.,.3.W G M h   o r / c.z.W K f O f V H 8 J J Y W W T P 1.% h ",
"b W H 0 B 1.9.W E B x a m.z.y.6.8.L 4.6.z   o % x 3.H 6 S S 1.6.t.S 4.&.T G B a # o r / x.9.Y 4 l O l 4.A m J J D D 2 5 e A % l ",
"b W K A A t.V T L B x % m.6.1.6.t.1.1.S z   o # x p.m.9.] ] U 1.S S S &.T L x a + X 6 4.z.s.Y : f o x x.y.8.H w A N : B B x % s ",
"M A 4.t.1.A :.T 6 B f % x.y.t.t.6.y.t.A z   o + x 6.M.s.Q D 4 ,.6.4.4.8.J L M a o X U 4.z.8.D 2 * o x z.t.;.H w 1.,.4.B 4.x % d ",
"A y.t.1.y.9.W H 6 B f % c.p.,.7.] E S 1.z   o + f S z.u.D 6 B S 4.t.3.W K M x # o + l 4.l.;.1 =   o x a.y.8.H w S 1.4.6.6.l % s ",
"A x.6.t.1.;.D 2 6 B f # k.x.1.3.T L 4.t.z &   o f M a.l.6 B S 4.t.;.G M M M B # o % l S t.Z 2 & - % l y.t.;.J G A 4.S A 4.l # % ",
"A x.t.t.1.2.2 e A B f # p.x.,.t.1.1.1.,.z &   o % x 4.a.4.S S B A B M B A B l # + % f l # $ ; - % % f B l f l l l l l l l l % $ ",
"A x.p.:.Y P 1.A 4.4.f # 6.x.t.,.t.t.S 1.M h   o % l l 1.1.B B l l a . * f l a o o % f l a a # % % f a o o o o o o o o o o o o $ ",
"A x.p.t.4.4.:.T K B f + 1.x.6.6.t.1.M 1.A h   o # f s % + + + o o + + + # % # # % # f f f f f f f f a f a a % % % % % # % # % $ ",
"A v.T ^ 4.:.T J L B f + M m.y.t.1.1.1.t.A h = o + f f a # % % % # a f f l x M M M B A S S S S Z D D D L S S S S S S S S S A % h ",
"b T T P y.3.H 2 4 M l o x m.4.;.U S 1.S S j = o + a b J J J J J J J L S S 4.6.6.y.y.t.y.y.p.r.] ] ] T I k.s.| ) s.] T I a.A % h ",
"b T L ,.6.4.;.2 4 x o + x m.t.:.G B t.1.x j = o o r 9 ] ] ] ] ] ] ] ] U y.a.y.a.6.a.y.a.k.s.] Y D D I p.r.| ) k.i.W W T G x # d ",
"m T L =.t.1.1.1.,.l o # x m.4.6.M B 1.,.M f = o o $ 8 ] W W Q W W W T P y.a.y.y.d.] U 6.t.3.T P t.7.] ] ~ S 4.i.W J W L S f # d ",
"b T P 1.4.t.1.t.,.l o % x x.y.t.y.t.4.6.M f & o o % @ Q W J J J J J H D e 4.a.y.8.J U y.t.6.a.6.q.] W ~ S 1.6.t.A V ~ B B l + $ ",
"i L S 1.t.4.t.1.x l o % x z.1.4.t.1.1.,.M l # o o # % 1.1.:.J D H F D 2 e A y.a.t.1.,.6.a.6.6.9.' S S ,.6.y.t.6.1.:.~ A B f # $ ",
"l 1.1.1.1.S M l f o # % l p.t.1.4.t.1.S x f # o o % a k.c.i.H 2 2 2 4 A A 4.y.a.4.p.1.6.7.]  .4.1.S A 1.>.| ( p.t.:.E B B f + $ ",
"l S S B M l l l l o + % l 4.6.t.1.1.,.A M l # o o % % p.c.d.G A A A A ,.4.:.U y.p.t.1.r. .t.1.4.t.1.1.6.e.T P t.6.4.A A B l o $ ",
"a # + l l l l l f o % f l S M M M M M M l l # o o # % p.c.k.A S 1.:.W T P p.1.4.y.6.y.p.t.;.( 9.^ y.6.e.T P 6.t.t.3.W E B l o $ ",
"l l f + + o o + o # % a % % % # # # % % % # # o o + % 4.z.p.1.p.6.e.W T w 1.p.4.p.6.1.>.| T e 6.y.a.6.t.6.6.t.6.1.4.y.S B f o # ",
"a a a a % # + + + + % a % # o o o o o o o o o o o o % 1.4.A A B A V 9 2 w 4.t.A S 4.r.| T e t.4.y.4.1.4.y.S 1.:. .6.1.4.B f o % ",
"l ,.w.] ] ` U 1.x f f l % # + + + + + + + + + + + # % l a # + + + + + # x B A S :.( 0.5 w S S A M ,.1.1.1.S ,.y.S M S S M l o $ ",
"l w.] | ] { ] ] W U t.1.B M l f % % % % % % % % # % f l f a % % % # % # + f l l l l l l l l l l l l l l l l l l l l l l f o + $ ",
"l 9.] | ( 1.1.1.6.y.i.Q | | ] ] ] W W W W T G A S A M M l l f f f f a % % + + + + + o o + + + + + + o o o o o o o o o o o + % d ",
"l p.a.3.( t.a.a.p.k.a.a.t.1.:.J J J J J J J J L 1.4.k.t.y.t.y.t.,.f l a % # % # % % % % # + + + + + + + + + + + + + + + % % f s ",
"l y.a.a.6.a.p.y.y.6.a.y.p.a.p.t.1.1.4.1.;.D D L 1.6.k.j.+.o.4.p.A % f l f f a % % % % % % % # % % % % % # % % % % % # % f f f h ",
"l y.a.z.a.a.s.| T I p.a.z.y.x.a.s.] K 6.1.1.1.1.4.p.t.>.{ L 1.S x o % l g F W W E c f f f l l j 8 W J 9 5 2 : f f a a f l l l h ",
"l y.a.a.t.1.&.Y D q a.y.a.z.y.y.p.z.k.a.y.a.y.z.t.,.y.z.t.1.,.M l o % f i T D D L A c.c.t.l k J ] ] ` U *.' y.y.f. .p.4.A f f h ",
"l t.,.A M M v D , A S B M A S B M M M A S 4.t.1.A M M M M M M l l # o % f b D D 4 B p.p.y.M x 1.S S S S ,.y.t.:.] K S p.x.1.+ l ",
"l 1.M a % % % # % # % % % % % % % % # # % % # % % % % % % % # # # # o # x 0.D 6 B 1.B 6.,.M l 1.4.t.4.9.] ' y.8.H L A 1.6.f o h ",
"f # o o o o o o o o o o o o o o o o o o o o o o o o o o o o o o o o o # a $ & : l M M M M M f M B 6.9.] ` K ,.8.G B A 1.,.f + h ",
"l a # # % + + + + + + + + + + + + + + + + + + + + + + + + + + + + + + + % u & * # o o o o o % f l j 2 : l l j 2 > l l l l l + h ",
"l l l l a f a f a a a a % # # # % % % % # # % % % % # # % % # % # # % % % f a f a % % % % % % f a o o o o o o o o o o o o o o h ",
"% % % % % % % % % % % % % % % % % % # % % % % % # % % % % % % % % % % % % % # % % % % % % # % % # % % # % % # % # % % % % % % $ "
};
