/* XPM */
static char *result[] = {
/* columns rows colors chars-per-pixel */
"64 64 215 2 ",
"   c gray12",
".  c #241B24",
"X  c #251B25",
"o  c #281B28",
"O  c #222222",
"+  c #232323",
"@  c gray14",
"#  c #252525",
"$  c gray15",
"%  c #272727",
"&  c #282828",
"*  c gray16",
"=  c #2A2A2A",
"-  c #2C2C2C",
";  c #2D2D2D",
":  c #2F2F2F",
">  c #353535",
",  c #3C343C",
"<  c gray22",
"1  c gray23",
"2  c #3C3C3C",
"3  c gray24",
"4  c #3E3E3E",
"5  c #3F3F3F",
"6  c #463F46",
"7  c #483F48",
"8  c #493F49",
"9  c #4E3F4E",
"0  c gray25",
"q  c #414141",
"w  c gray26",
"e  c #434343",
"r  c #464442",
"t  c gray27",
"y  c #464646",
"u  c gray28",
"i  c #484642",
"p  c #4A434A",
"a  c #484848",
"s  c #494949",
"d  c gray29",
"f  c #4B4B4B",
"g  c #4C4C4C",
"h  c gray30",
"j  c #4E4E4E",
"k  c gray31",
"l  c #514F4C",
"z  c #56524E",
"x  c #524A52",
"c  c #534A53",
"v  c #544A54",
"b  c #505050",
"n  c #515151",
"m  c gray32",
"M  c #535353",
"N  c gray33",
"B  c #555555",
"V  c #565656",
"C  c gray34",
"Z  c #595551",
"A  c #585858",
"S  c gray35",
"D  c #5A5A5A",
"F  c #5B5B5B",
"G  c gray36",
"H  c #5D5D5D",
"J  c gray37",
"K  c #5F5F5F",
"L  c #62605E",
"P  c #63615E",
"I  c #63625E",
"U  c #65625F",
"Y  c #66635F",
"T  c #68635F",
"R  c #635B63",
"E  c #655B65",
"W  c #606060",
"Q  c gray38",
"!  c #626262",
"~  c gray39",
"^  c #646464",
"/  c #656565",
"(  c gray40",
")  c #676767",
"_  c #6F666F",
"`  c #686868",
"'  c DimGray",
"]  c #6A6A6A",
"[  c gray42",
"{  c #6C6C6C",
"}  c #6D6D6D",
"|  c gray43",
" . c #6F6F6F",
".. c gray44",
"X. c #717171",
"o. c #727272",
"O. c gray45",
"+. c #747474",
"@. c gray46",
"#. c #767676",
"$. c #777777",
"%. c gray47",
"&. c #797979",
"*. c gray48",
"=. c #7B7B7B",
"-. c #7C7C7C",
";. c gray49",
":. c gray50",
">. c #887F88",
",. c #897F89",
"<. c #808080",
"1. c #818181",
"2. c gray51",
"3. c #838383",
"4. c #848484",
"5. c gray52",
"6. c #868686",
"7. c gray53",
"8. c #898682",
"9. c #8B8783",
"0. c #888888",
"q. c #898989",
"w. c gray54",
"e. c #8B8B8B",
"r. c gray55",
"t. c #8D8D8D",
"y. c #8E8E8E",
"u. c gray56",
"i. c #928992",
"p. c #938993",
"a. c #968996",
"s. c #909090",
"d. c gray57",
"f. c #929292",
"g. c gray58",
"h. c #959595",
"j. c gray59",
"k. c #979797",
"l. c #989898",
"z. c #9A9A9A",
"x. c #9B9B9B",
"c. c #9D9D9D",
"v. c gray62",
"b. c #9F9F9F",
"n. c #A4A09C",
"m. c #A298A2",
"M. c #A498A4",
"N. c #A798A7",
"B. c #A0A0A0",
"V. c gray63",
"C. c gray64",
"Z. c #A4A4A4",
"A. c #A5A5A5",
"S. c gray65",
"D. c #ACA2AC",
"F. c #AFA2AF",
"G. c gray66",
"H. c #A9A9A9",
"J. c #AAAAAA",
"K. c gray67",
"L. c #ACACAC",
"P. c #AEAEAE",
"I. c gray69",
"U. c #B1B1B1",
"Y. c #B2B2B2",
"T. c gray70",
"R. c #B4B4B4",
"E. c #B6B6B6",
"W. c #B7B7B7",
"Q. c gray72",
"!. c #B9B9B9",
"~. c gray73",
"^. c #BCBCBC",
"/. c gray74",
"(. c gray",
"). c gray75",
"_. c #C5BBC5",
"`. c #C7BBC8",
"'. c #C1C1C1",
"]. c gray76",
"[. c #C3C3C3",
"{. c gray77",
"}. c #C5C5C5",
"|. c gray78",
" X c #C8C8C8",
".X c gray79",
"XX c #CACACA",
"oX c #CBCBCB",
"OX c gray80",
"+X c #CDCDCD",
"@X c #CECECE",
"#X c #D0D0D0",
"$X c gray82",
"%X c #D2D2D2",
"&X c LightGray",
"*X c gray83",
"=X c #D5D5D5",
"-X c gray84",
";X c #D7D7D7",
":X c gray85",
">X c #DADADA",
",X c gray86",
"<X c gainsboro",
"1X c #DDDDDD",
"2X c gray87",
"3X c #DFDFDF",
"4X c #E1E1E1",
"5X c gray89",
"6X c #E4E4E4",
"7X c gray90",
"8X c #E7E7E7",
"9X c #EAEAEA",
"0X c #ECECEC",
"qX c gray93",
"wX c #EFEFEF",
/* pixels */
"X < O < O < O < O < O < O < O < O < O < O < O < O < O < O < O < O < O < O < O < O < O < O < O < O < O < O < O < O < O < O < O < ",
"Z M C b V b V b V b f {.2X3X3X*X2X*X2X3X3X*X2X*X2X3X3X> < =.S.E.#X X%X&X X%X~.}.P.0.G # w u u u u u u u u u m k V b V b V b V b ",
"z C M M C M M M C M a @X*X X%X~.#X&X&X X%X&X~.#X&X Xh.- < =.).!.g.G.0.y.u.u.u.4.S.S 3 O < ( e.u.4.y.u.u.;.} ) f u u f u u u f u ",
",.u.4.y.u.u.4.y.- h g @XXX|.!.#X~.}.|.!.}.|.!.W.#Xk.^ $ < v.@XI.f.G.f.G.0.S.f.G.0.G 4 O < 5.oX2X3X3X*X2X^.W.L.f.4.y.u.u.4.y.u.u.",
"`.&X&X&X~.L.f.4.= n s @X*XI.K.c.H.f.G.K.K.K.c.H.K.<.A # < 5.Y.g.u.4.S.K.K.K.0.y.#.M 3 O < =.=X3X^.}.!.#X2X3X3X*X2X*X X%X&X&X X%X",
"N.K.K.K.c.H.<.+.* h a <X/.v.H.K.K.K.c.H.f.G.0.S.K.o.V # < y B.f.G.K.0.y.z.s.G.o.S M 4 O < 5.oX~.L.f.G.f.G.K.c.s.u.G.f.G.0.S.f.z.",
"F.v.x.x.H.f.;.} & y u <X-XI.0.S.f.G.f.z.x.x.s.u.G.f.V @ < y @.t.4.S.f.G.K.0.S.&.q 1 1 O < =.=X^.g.G.0.l.6.y.u.G.0.y.z.s.G.c.s.z.",
"D.L.0.U.q.l.( A # < y <XOXh.z.s.G.K.c.s.;.t.u.G.f.^ A # < y u 7.G.K.c.s.u.u.G.o.0 1 1 O < 5.-XU.K.0.l.:.S.c.:.t.G.0.S.K.f.;.S.c.",
"p.H.K.f.z.%.g f @   y !.!.L.c.H.0.S.f.z.6.l.s.u.G.o.V #   y m a @.w 1 1 1 1 1 1 1 O   < 1 } &X3Xl.G.0.3.l.%.j.s.G.f.u.;.S.K.&.r.",
">.u.4.y.#.C a u @ < y B.8XT.c.H.f.u.u.u.u.u.4.S.0.G $.*   < y 2 1 1 1 1 1 1 O < O     w u u Q.|.h.u.u.u.z.x.x.6.y.G.f.G.K.0.S.f.",
"_ { o.O.M f 3 1 O   y 7.oXk.G.f.u.;.t.u.G.0.S.f.G.o.S 4 O < y 2 O             < O < O y m a Q.P.f.G.0.S.f.4.y.#.{ ) W K ( W ( W ",
"c C s u u @       < 5 } &XU.0.l.:.=.=.S.c.s.4.-.t. .) 0 O < y u f f | *.t.G.c.H.K.c.%.q h f K.g. .o.` W ( S M M M a f u f u u f ",
".         < O < O < b a @XXXh.u.u.z.x.6.y.G.<.t.G.f.V 3 O < 5 } A.K.@X2XqX-X&X&XV...V # h a 7. .) W N g u u 2 1 1 1 1 O < O < O ",
". < O < O   < O < 1 h a B.@Xk.G.0.-.t.G.f.4.l.s.4.@.M 3 O   < v.E.>X*X~.q.S.f.G.0.@.q O < 1 1 1 1 1 1 1 1 1 1 O                 ",
", 1 1 1 1 1 1 1 1 1 s f 7.'.P.0.S.c.6.-.t.;.t.G.f.V V 4 O < 5 b.:X^.L.f.u.u.4.y.u.V 3 O < O   < O   < O   < O 1 5 1 1 1 1 1 1 1 ",
"x g 3 1 1 1 1 1 O < b a | /.e.S.c.s.G.c.H.0.S.0.S.S  .g @   y B.8XT.f.4.S.f.G.0.S.H 4 O < y B M C C # w f u u f u u u u u u u 0 ",
"i.x.s.z.s.z.s.z.x.;   n s Q.!.v.s.4.l.x.%.r.u.u.u. .S M #   y B.8Xu.y.G.K.0.S.f.u.V 3 O < ( Z.:X*X/ s m #.k.x.s.z.x.x.s.z.x.x.x.",
"_. X%X&X X%X~.L.&.t + n s 7.Y.g.G.f.;.t.u.4.S.f. .e. .k @   y B.{.P.K.f.4.S.f.G.0.G 4 O < v.@X XP.: w @.(.%X2X3X3X*X2X3X3X*X2X*X",
"m.c.s.G.f.G.K.o.o.q O h a | j.H.0.S.K.0.S.&.r. .V  .C g @   y B.{.P.f. .o.O.{ V C M 4 O < ]. XP.0.= y f.+X&X~.W.L.E.W.W.L.E.W.W.",
"M.f.z.s.G.0.y. .o.q O w m a d.s.#.O.{ o.C M  .M  .C a @     < s.s.#.r. .0 1 1 1 1 1 1 O A #XU.f.u.- w d.;XU.K.c.H.f.G.f.z.6.l.x.",
"M.f.u.G.0.S.K.o.S 4 O w m a ~ B C M C s u u 2 O               2.#.q 1 1 O               A #XU.K.0.= y f.+XI.f.z.6.l.s.z.%.1.y.4.",
"n.f.G.f.G.0.y.#.M 3 O w m a @ < O < O                       < 1 h 3 O         < O   < O 2.-XU.K.f.- w 7.'.e.S.c.H.f.G.f.z.6.l.x.",
"9.G.&.*.t.u.G.o.S 4 O < h V g 3 O               d f f k f f u 7.u.u.G.K.f.u.u.;.F # 1 ! P.>XU.0.-.* y ;.).P.0.l.s.z.6.l.:.=.t.u.",
"9.4.3.-.t.G.0.] f 2 O < =.=X3X3X*X XP.K.f.^ 5 s ^ &.S.K.E.}.|.<X3X3X*X2X3X3XXXB.} % < +.*XXXB.H.&.* w -.U.L.c.s.G.0.S.f.;.=.t.u.",
"8.u.G.K.0.y.u.^ h 3 O < ]. XP.f.z.x.H.f.z.y h f #..X0X4X3XXX!.W.}.!.}.!.}.!.}.@.S # < 5.-XU.c.s. .& y ) /.e.S.f.u.z.s.4.S.f.G.f.",
"a.H.0.y.G.0.@.C 4 1 O < OXC.s.z.H.K.f.z.H.: h g f.;XXXh.G.0.S.c.6.S.c.H.c.s.4.] f @ < 5.6XT.0.S.Q # y u 7.#.Q A M M / ) [ &.t.4.",
"E W ( W ( B a 2 1 1 O < ].I.K.K.0.S.f.G.` $ y u d.7XT.c.H.f.;.S.K.f.4.y.G.0.S.Q s @ < =.5XT.K.f.H # h # < 1 y u u u f u u m C M ",
"v g u 2 1 1 O         < OXt.S.f.G.K.f.;.! $ y u d.7Xu.S.f.z.H.0.y.;.t.G.f.u.u.V f @ < 5.6Xu.S.f.V @ n 4 O                 < 1 y ",
"o             < O y f u @XU.c.6.S.f.G.<.! $ < y d.7Xz.u.G.0.y.;.t.;.t.4.y.G.f.V f @ < =.5XT.K.0.G # n 4 1 1 1 1 1 1 O < O       ",
"9 ~ ) [ e.z.s.4.y.u.k @ .XU.&.j.s.G.0.3.] 0 O w 7.6XT.f.4.y.;.t.;.t.G.<.t.4.S.H a @ < 5.6Xz.G.K.S @ n s 0 y j M k V M M C 4 1 1 ",
"Y w.Y.>X*X2X*X&X XP.&.* .XU.K.0.-.t.G.0.] 0 O w 7.-X^.v.s.G.f.G.&.*.t.;.t.G.0.G 4 O < 5.oXk.u.G.S @ y B.:X*X~.g.^ A s u f u u m ",
"Y C.@X X|.!.L.K.c.H.f + ;Xz.z.H.<.t.G.c...f @ y #..X XP.0.y.#.r.;.=.S.f.G.0.3.B 3 O < 5.-XU.f.u.D # y @Xt.y.Y.>X3X*X2X3X3Xl.t b ",
"U $X^.L.K.0.S.f.G.0.@.* ;XA.H.f.G.K.0.S.o.k @ < h !.<XU.K.c.s.G.0.S.<.=.t.G.o.S 4 O 1 6.oXk.G.f.V @ y @Xl.4.S.K.0.y.G.f.4.3.e h ",
"I |.~.v.6.S.f.G.0.S.&.* ;XA.6.l.H.f.G.0.] B #   n V.8XT.K.c.s.u.;.t.;.=.S.0.@.g 2 O y 7.oXI.K.0.G # w @XU.K.0.y.G.K.0.S.f.^ 5 y ",
"I $XU.f.G.f.G.K.<.S.S @ .XU.K.K.f.u.u.G. .m @ < h 0.6X/.L.f.G.0.y.z.6.S.f.G.` d @ < 5 6.oXV.s.G.S @ y !.P.f.G.K.0.y.G.f.G.` 5 y ",
"U $XU.K.f.u.z.x.H.0.G # .X^.2.k.:.S.K.c.( A #   y ) |.~.L.f.;.k.6.y.z.s.u.u.^ 5 O   y 7.oXk.G.S V # y !.P.c.H.f.G.0.y.G.c.K 4 y ",
"Y |.~.g.G.K.f.G.0.S.H # R.<Xt.l.H.f.u.u.^ A #   y m L.>XU.0.S.f.G.f.G.0.y.{ B 4 O < y @.S.<.N 3 1 1 5 b.K.f.G.c.s.G.f.4.S.Q 4 1 ",
"T $X^.L.c.s.G.f.G.f.V @ S.>X6.S.0.y.u.G.o.S #   < h 0.Y.L.f.;.' W N a f 3 1 1 1 O < 5 N 4 1 1 1 5 y @ ' M a m C M C M M C M 4 1 ",
"T $XU.f.G.K.0.S.<.S.H # t.+XV.:.S.K.0.y. .S #   < b a 7.u.^ A s 2 O               < y j a u j M C M C #                       < ",
"Y |.~.g.4.l.H.f.G.0.G # X.*XU.c.H.0.y.G. .m @     d a 2 O < O       < O < O   < O < y m C s u f u u u f u u 2 1 1 1 1 1 1 1 1 1 ",
"I $X^.L.K.0.l.H.f.G.H # n 2Xz.z.s.u.G.0.] B #   < y u u 2 1 1 1 1 s u f 0 h f u f u u B M #.=.=.=.=.=.=.=.=.=.=.=.=.=.=.=.+.q h ",
"I $XU.f.u.G.0.S.f. .S # w <XT.f.4.-.t.G.o.S #     1 ! &.=.=.=.=.=.=.=.=.=.=.=.=.t.u.u.z.H.E.L.{.!.}.!.}.!.W.}.!.}.!.}.!.}.4.w h ",
"P ^.!.L.K.f.G.f.G.S @   d 1XA.s.G.f.u.4.] S 4 O   < +.(.!.}.!.}.!.}.|.!.}.!.}.!.}.!.#X2X3XqXwXwXwXwXwXwXwXwXwXwX-X2X*X&Xk.{ % y ",
"L |.~.g.G.f.G.K.0.G # < 5 ,Xz.G.<.k.6.S. .m 3 O     X.(.|.9XwXwXwXwX4X3XqXwX4XqXwXwXwXwX4X3X*X&X~.W.W.}.!.L.E.}.!.W.}.!.2.F # d ",
"R P.W.L.f.G.0.y.u.V @ < y @XU.K.0.S.f.u.^ A 4 O     X.(.|.!.}.!.}.!.}.P.E.}.P.E.}.!.W.L.K.c.x.s.u.G.f.G.0.y.u.G.0.S.f.G.o.S 4 1 ",
"p !.e.y.G.0.@.{ o.C # < y [.r.y.G.0.S.f. .S 4 O     K P.>X^.g.u.4.y.u.u.G.0.S.K.f.u.z.H.K.K.f.;.k.6.S.K.c.6.S.f.G.K.c.s. .V # < ",
"6 J.L.K.c.s.H M M #   1 y J.L.0.y.G.f.4.@.C 4 O     w Q.<X^.g.u.u.G.f.z.s.z.H.0.y.z.H.K.0.l.s.z.s.u.;.2.l.x.s.G.0.S.f.G.o.S 4 1 ",
"8 @.=.=.F M C M M # < 1 5 d.x.H.0.y.u. .) B 4 O       S.>X*XI.K.0.y.u.u.;.t.4.S.f.z.6.S.c.:.2.y.G.0.y.G.f.;.+.r.;.k.s.u.#.C # < ",
"r 2 O     n M M C # < 5 d #.' W ( ) W ( B M 4 O     < v.@X&Xk.4.S.f.G.0.y.G.f.;.=.k.x.6.S.f.G.f.u.G.0.y.;.t.u.4.S.f.#.1.| S # < ",
"l C M a 2 O       < 1 5 1 1 1 1 1 1 1 1 1 1 1 O       2.oX~.L.f.u.G.0.S.<.t.4.l.:.k.s.z.:.S.0.y.;.t.u.u.4.S.f.;.t.u.4.-.} S # < ",
"r f u u u f u 2 O   < s 3 1 O                       < =.l...o.O.{ o.O.{ Z.f.G.K.0.y.;.2.y.u.;.t.u.G.0.S.f.u.G.0.y.u.u.z...S # < ",
"8 @.S.K.K.K.f.u.{ j f m 4 1 O   < O   < O   < O < O < b a 2 1 O < O < O n ..{ &.t.;.=.=.=.=.=.=.=.=.=.=.=.=.=.=.=.=.=.=.' m @ < ",
"r B.{.%X2X*X2X3X^.L.K.f. .W A g 3 1 1 1 1 1 1 1 1 1 5 N s u 2 1 1 1 1 1 O y m M C M C M C M C M M M C M C M M C M C M M M # < 1 ",
"r B.@XI.K.f.Y.#X2X3X3X^.L.K.K.K.K.K.K.c.s.u.4.-.=.} ) ) m V s u u 0 y 2 1 O < O < O < O < O < O < O                         < 5 ",
"7 B.:XU.K.K.E.L.f.G.E.>X3X3X*X2X*X2X*X2X3X3X3XXX%X X!.L.K.K.K.K.0.n m a 2 1 1 1 1 1 1 1 1 O   < O < O < O < O < O < O < 1 1 y f ",
"7 B.:XU.0.S.<.=.S.c.s.;.S.0.S.f.G.f.G.K.0.S.f.G.K.K.{.%X2X*X&X~.q.e y j f u u 2 1 1 O < 1 1 1 1 1 1 1 1 1 1 1 1 1 1 1 1 5 y f m ",
"7 B.{.P.K.K.f.G.f.u.u.z.H.0.y.G.<.+.r.G.<.t.4.y.G.0.S.f.G.K.K.<.' % < h f B.@X2XC.:.b f u m M M a u 0 y u u 0 y u 0 y u j V M M ",
"8 B.{.P.0.S.<.=.k.H.0.S.K.c.6.-.S.<.t.;.k.6.S.f.G.f.G.0.S.K.c.} B # < y u @XU.K.:X3X3X*X~.J M g K.>X3X*X2X3X3X*X&X XP.c.:.b u m ",
"i B.0.] W ( W ( W ( ) W ( W ( ) W ( W ( W ( ) W ( W ( W ( W ( S M 4 O < y [.~.L.E.L.E.W.W.' A $.*XC.H.K.f.G.0.S.c.H.f.G.@XV.; h ",
"9 7.{ 0 1 1 1 1 1 1 1 1 1 1 1 1 1 1 1 1 1 1 1 1 1 1 1 1 1 1 1 1 1 1 O   y K.L.E.W.v.( g.6.] f J.L.f.G.0.S.K.K.0.S.f.G.0.S.H # n ",
"r 2 O                                                                   d 3 y 2 h ^ W ( ) W h @XC.x.x.H.K.f.z.H.c.x.H.f.u.V @ n ",
"l g 3 1 1 O < O   < O   < O   < O < O   < O   < O   < O   < O   < O < O 1 h V 4 1 O         < b C M M M M M C b M C M C b V # h ",
"l C b M a u u f f u f f 3 1 1 1 1 1 1 1 1 1 1 1 1 1 1 1 1 1 1 1 1 1 1 1 1 h V b M 4 1 1 1 1 1 h M #                           n ",
"0 1 1 1 1 1 1 1 1 1 1 1 1 1 1 1 1 1 1 1 1 1 1 1 1 1 1 1 1 1 1 1 1 1 1 1 1 1 1 1 1 1 1 1 1 1 1 1 1 1 1 1 1 1 1 1 1 1 1 1 1 1 1 1 "
};
