/* XPM */
static char *result[] = {
/* columns rows colors chars-per-pixel */
"64 64 59 1 ",
"  c #2F250F",
". c #3A2B13",
"X c #382E1B",
"o c #3D3320",
"O c #423115",
"+ c #433317",
"@ c #403018",
"# c #493519",
"$ c #483818",
"% c #4D3A1A",
"& c #4F3A1A",
"* c #503B1B",
"= c #543C1C",
"- c #543D1D",
"; c #573F1D",
": c #573E1E",
"> c #593E1E",
", c #5A3E1F",
"< c #493A27",
"1 c #483F2C",
"2 c #5A401F",
"3 c #5D411F",
"4 c #5E411F",
"5 c #4A402D",
"6 c #4F412E",
"7 c #5C4020",
"8 c #514330",
"9 c #544633",
"0 c #534A37",
"q c #5D4833",
"w c #5F4A34",
"e c #5B4C3A",
"r c #614321",
"t c #624321",
"y c #634322",
"u c #624421",
"i c #654522",
"p c #664523",
"a c #674523",
"s c #664723",
"d c #654324",
"f c #6A4725",
"g c #6C4824",
"h c #6D4926",
"j c #6F4A26",
"k c #714A26",
"l c #724D29",
"z c #744C28",
"x c #774F2A",
"c c #7B512C",
"v c #69533E",
"b c #594F41",
"n c #5D5441",
"m c #645643",
"M c #735D48",
"N c #81542D",
"B c #85552F",
"V c #905C34",
"C c #83644D",
/* pixels */
"@@@@@@@@@@@@@@@@@@@@@@@@@@@@@@@@@@@@@@@@@@@@@@@@@@@@@@@@@@@@@@@b",
"gggggggggggggggggggggggggggggggggggggggggggggggggggggggggggggggM",
"VVVVVVVVVVVVVVVVVVVVVVVVVVVVVVVVVVVVVVVVVVVVVVVVVVVVVVVVVVVVVVVC",
"======#+O +=============#+O +===#+O +=====#+O +==========#+O +=9",
"$;jzzzahd.hc-$$$2zu;3;3$%hd.hBu2ahd.hc-$$*>hd.hl2u$2u2u2zahd.hNw",
"$;jzzf>hd.hN3$$%rzu;3;3$%hd.hBu2ahd.hBf-*pahd.hl2u$2u2u2zahd.hNw",
"$*pzza=hd.hBa&$%rzu;3;3$%hd.hN32ahd.hBzfpzahd.hl2u$2u2u2zahd.hNw",
"&%4jza=hd.hBa&$*pk3;3;3$%hd.hN32ahd.hBzzzzahd.hl2u$2u2u2zahd.hNw",
"3$*pf-%hd.hBf-%4jk3;3;3$%hd.hN32ahd.hBzzzzahd.hl2u$2u2u;jahd.hx8",
"3%&*>&%hd.hBk3*pzf-;3;3$%hd.hc-2ahd.hBzzzzahd.hl2u$2u2u;jahd.hx8",
"a&$%&$%hd.hBzfyjzf-;3;3$%hd.hc-2ahd.hBzzzzahd.hl2u$2u2u*pahd.hx8",
"a&$$$%=hd.hBzkjzza&;3;3$%hd.hl$2ahd.hBzzzzahd.hl2u$2u2u*pahd.hl5",
"ju$$%rahd.hBzkjzza&;3;3$%hd.hl*pahd.hNjzzzahd.hl2u$2u2a&2ahd.hl5",
"ja&$%rahd.hBzzzzk3$;3;3$%hd.hl*pahd.hNjzzkthd.hl2u$2u2a&2ahd.hl5",
"pzu%rzahd.hBzzzzk3$;3;3$%hd.hl2zahd.hcpzzkthd.hl2u$2u2a&2ahd.hl5",
"rzzarf>hd.hNjzzzk3$;3;3$%hd.hcpzahd.hl;jki>hd.hl2u$2u2a&2ahd.hx8",
";jzfpa=hd.hNjzzzf-$;3;3$%hd.hcpkthd.hl*yi-%hd.hl2u$2u2f-2ahd.hx6",
";jzzza=hd.hcpzzzf-$;3;3$%hd.hBzkthd.hl$*-$%hd.hl2u$2u2f-;thd.hx<",
"*yjzzu%hd.hcpzzza&$;3;3$%hd.hBzf>hd.hl$$$$%hd.hl2u$2u2k3;thd.hNv",
"%4jzf-%hd.hx4jzza&%43;3$%hd.hBki>hd.hl$$$$%hd.hl2u$2u2k3;thd.hNv",
"$*pza&%hd.hx4jzk3$%43;3$%hd.hBk3%hd.hl$$$$%hd.hl2u$2u2k3*>hd.hNq",
"$%rza&%hd.hl*pzk3$%43;3$%hd.hBf-%hd.hc-$$*>hd.hl2u$2u2zu*>hd.hNt",
"&%:>&$%hd.hl*pzf-$*y3;3$%hd.hN3$%hd.hNi-*ythd.hl2u$2u;ju$%hd.hNi",
"&$%&$%=hd.hl%4gi-$*y3;3$%hd.hc-$%hd.hBkiyjahd.hl2u$2u;ja&%hd.hN3",
"&$$$$%=hd.hl%:7>&$*7-;3$%hd.hl$$%hd.hBzkjzahd.hl2u$2u*pa&%hd.hc-",
"3$$$$;thd.hl$%=&$$;t&;3$%hd.hl$$%hd.hBzzzzahd.hl2u$2u*pf-%hd.hx&",
"3$$$$;thd.hl$$$$$$;t&;3$%hd.hl$%=hd.hBzzzzahd.hl2u$2u%rf-%hd.hx&",
"t&$$%:>hd.hl$$$$$%ru$;3$%hd.hl$%=hd.hBzzzzahd.hl2u$2u%rkt=hd.hl$",
">&$$%==hd.hl$$$$$*pu$;3$%hd.hl$*>hd.hNjzzzahd.hl2u$2u%rkt=hd.hl$",
"43$$;t=hd.hl$$$$$*pu$;3$%hd.hl$;thd.hNjzzzahd.hl2u$2u$2zf-sd.hl$",
"4t&$;3%hd.hl$$$$$;ju$;3$%hd.hl%4thd.hcpzzkthd.hl2u$2u$2zf>hd.hl$",
"*>&;i-%hd.hx&$$$$;ju$;3$%hd.hl*pahd.hcyjzkthd.hl2u$2u$;jkthd.hl$",
"%4t4t&%hd.hc-$$$%rk3%43$%hd.hx4jahd.hl;jzf>hd.hl2u$2u$;jkthd.hl$",
"%4t4t&%hd.hNt&$$*pk3%43$%hd.hcpzahd.hl*pk3%hd.hl2u$2a&*pzahd.hl$",
"$*yi-$%hd.hBf-$%:pf-*y3$%hd.hNjzahd.hl$;i-%hd.hl2u$2a&*pzahd.hx&",
"$%:>&$%hd.hBkt&%rza&*y3$%hd.hBzzahd.hl$*-$%hd.hl2u$2a&%rzahd.hx&",
"$$%&$$%hd.hBzf-*pza&*y3$%hd.hBzkthd.hl$$$$%hd.hl2u$2a&%rzahd.hc-",
"$$$$$$%hd.hBzzfpzzu$;g3$%hd.hBzkthd.hl$$$$%hd.hl2u$2f-%rzahd.hN3",
"$$$$$%=hd.hBzzzzzk3$;g3$%hd.hBzf>hd.hl$$$$%hd.hl2u$2f-$;jahd.hN3",
"&$$$$%=hd.hNjzzzzk3$2k3$%hd.hBki>hd.hc-$$$%hd.hl2u$2k3$;jahd.hN,",
"&$$$$*>hd.hNjzzzzf-$2k3$%hd.hBk3%hd.hc-$$$%hd.hl2u$;g3$*pahd.hx6",
"t&$$%:>hd.hcpzzzza&$2f-$%hd.hBf-%hd.hNi-$*>hd.hl2u$;ju$*pahd.hxe",
"t&$$%4thd.hxrzzzzu$$2f-$%hd.hNi-%hd.hBf-*7>hd.hl2u$*pa&%4thd.hl0",
"i>&%:ythd.hl;jzzk3$%ru$$%hd.hN3$%hd.hBki7ythd.hl2u$*pa&%4thd.hlo",
"gt==4i>hd.hl*pzzf-$*pu$$%hd.hc-$%hd.hBzfyjahd.hl2u$%ra&%:>hd.hlo",
"yi>:yt=hd.hl%4jkt&$;ju$$%hd.hl$$%hd.hBzkjzahd.hl2u$%rf-$*>hd.hlo",
"4giygt=hd.hl$%4i-$$;ju$$%hd.hl$%=hd.hBzzzzahd.hl2u$%rf>&%=hd.hlX",
"4giyg3%hd.hl$$%=&$$2k3$$%hd.hl$%=hd.hBzzzzahd.hl2u$%rkt&%=hd.hl1",
";jzzk3%hd.hx&$$$$$%rk3$$%hd.hl$*>hd.hBzzzkthd.hl2u$$2kt&%=hd.hl0",
"*pzzk3%hd.hx&$$$$$*pf-$$%hd.hl%4thd.hNjzzkthd.hl2u$$;jf-$%hd.hln",
"%4jzk3%hd.hc-$$$$$;jf-$$%hd.hl*pahd.hNjzzf>hd.hl2u$$;jf>&%hd.hln",
"%4jzf-%hd.hNt&$$$$;ju$$$%hd.hx4jahd.hcpzzf>hd.hl2u$$*pkt&%hd.hxm",
"$*pki-%hd.hBa&$$$%rk3$$$%hd.hNjzahd.hcpzkt=hd.hl2u$$*pki-%hd.hx4",
"$%4gt&%hd.hBf-$$$*pk3$*-%hd.hBzzahd.hx4jkt=hd.hl2a&$%4jf>=hd.hc7",
"$%4i>&%hd.hNgt&$$;jf-$*-%hd.hBzzahd.hx4jf-%hd.hl2a&$%:pkt=hd.hc7",
"$$*7-$%hd.hNja&$%4ju$$;3%hd.hBzzahd.hl*yt&%hd.hl2a&$$*pkt=hd.hNi",
"$$%=&$%hd.hcpkt&%rzu$$;3%hd.hBzzahd.hl%:-$%hd.hl2a&$$%4ja=hd.hNi",
"&$$$$%=hd.hl;jktrzk3$$;3%hd.hBzzahd.hl$%&$%hd.hl;i-$$%:pkthd.hBf",
"&$$$$%=hd.hl*pzzzzf-$$2u%hd.hBzkthd.hl$$$$%hd.hl;g3$$$*pkthd.hBf",
"-$$$$;thd.hl$2zzzk3$$*pu%hd.hBzkthd.hl$$$$%hd.hl*yt&$$%4gthd.hBf",
">&$$%4thd.hl$*yjki-$$;ju%hd.hBki>hd.hl$$$$%hd.hl*pa&$$$*7>hd.hBf",
"t&$$%4thd.hl$$*yi-$$$;ju%hd.hBki>hd.hl$$$$%hd.hl$2a&$$$$%=hd.hBf",
"i-$$%4thd.hl$$$*-$$$;jzf>hd.hNi-%hd.hl$$$$%hd.hc-2f-$$$$$%hd.hBf",
"777777>hd.hc-$$$$$$*7777>hd.hc-$%hd.hc-$$*>hd.hc-*7-$$$$$%hd.hc7"
};
