/* XPM */
static char *_173e73a12a24c47ea36466a84c49429MpGl4baJKiyKkgfl[] = {
/* columns rows colors chars-per-pixel */
"16 16 4 1 ",
"  c gray3",
". c #090909",
"X c gray4",
"o c #0B0B0B",
/* pixels */
"..........o.oooo",
".........o.o.oo.",
".o...o.oo.o.o..o",
"o.o.o.o..o.o....",
".o.o.o.oo.o.....",
"o.o.o.o.........",
".o.o.o.o........",
"o.o.o.o.........",
".o.o.o..........",
"o.o.o.o.........",
"................",
"................",
"................",
"................",
"................",
"................"
};
