/* XPM */
static char *ffa9733c285d470abb5d8e6b70fe4553sqAccczqSo73TMGy[] = {
/* columns rows colors chars-per-pixel */
"64 64 61 1 ",
"  c #231F1D",
". c #221E1F",
"X c #3C1D1E",
"o c #201F20",
"O c #231F20",
"+ c #251F22",
"@ c #242021",
"# c #343132",
"$ c #3C383A",
"% c #421E1D",
"& c #431D1E",
"* c #421F1E",
"= c #621C1D",
"- c #641C1D",
"; c #5C595A",
": c #685152",
"> c #666364",
", c #9B181A",
"< c #9E1819",
"1 c #A91818",
"2 c #B6171A",
"3 c #B6171B",
"4 c #BF171A",
"5 c #B51F21",
"6 c #C11719",
"7 c #C21619",
"8 c #C0171B",
"9 c #C71718",
"0 c #DF1617",
"q c #DE1717",
"w c #E71617",
"e c #EE1516",
"r c #F91515",
"t c #F91516",
"y c #FA1516",
"u c #F81616",
"i c #F71418",
"p c #F81E1E",
"a c #C9393A",
"s c #F92324",
"d c #FA2829",
"f c #8D5F62",
"g c #F84143",
"h c #FC7B7B",
"j c #FC7B7C",
"k c #FF00B8",
"l c #828081",
"z c #8C8A8B",
"x c #BBBABA",
"c c #CDCBCC",
"v c #CDCCCC",
"b c #CECCCD",
"n c #FDC1C1",
"m c #E2E1E1",
"M c #E5E4E4",
"N c #EAEAEA",
"B c #FFF7F8",
"V c #F8F8F8",
"C c #FEF9F9",
"Z c #FEFEFE",
"A c white",
/* pixels */
"kkkkkkkkkkkkkkkkkkkkkkkkkkkkkkkkkkkkkkkkkkkkkkkkkkkkkkkkkkkkkkkk",
"kkkkkkkkkkkkkkkkkkkkkkkkkkkkkkkkkkkkkkkkkkkkkkkkkkkkkkkkkkkkkkkk",
"kkkkkkkkkkkkkkkkkkkkkkkkkkkkkkkkkkkkkkkkkkkkkkkkkkkkkkkkkkkkkkkk",
"kkkkkkkkkkkkkkkkkkkkkkkkkkkkkkkkkkkkkkkkkkkkkkkkkkkkkkkkkkkkkkkk",
"kkkkkkkkkkkkkkkkkkkkkkkkkkkkkkkkkkkkkkkkkkkkkkkkkkkkkkkkkkkkkkkk",
"kkkkkkkkkkkkkkkkkkkkkkkkkkkkkkkkkkkkkkkkkkkkkkkkkkkkkkkkkkkkkkkk",
"kkkkkkkkkkkkkkkkkkkkkkkkkkkkkkkkkkkkkkkkkkkkkkkkkkkkkkkkkkkkkkkk",
"kkkkkkkkkkkkkkkkkkkkkkkkkkkkkkkkkkkkkkkkkkkkkkkkkkkkkkkkkkkkkkkk",
"kkkkkkkkkkkkkkkkkkkkkkkkkkkkkkkkkkkkkkkkkkkkkkkkkkkkkkkkkkkkkkkk",
"kkkkkkkkkkkkkkkkkkkkkkkkkkkkkkkkkkkkkkkkkkkkkkkkkkkkkkkkkkkkkkkk",
"kkkkkkkkkkkkkkkkkkkkkkkkkkkkkkkkkkkkkkkkkkkkkkkkkkkkkkkkkkkkkkkk",
"kkkkkkkkkkkkVmmmmmmmmmmmmNkkkkkkkkkkkkNmmmmmmmmmmmmVkkkkkkkkkkkk",
"kkkkkkkkkkkkbOOO@.@.@.@.@>kkkkkkkkkkkk>.@.@.@.@.@.@bkkkkkkkkkkkk",
"kkkkkkkkkkkkbOOO.@.@.@.@.>kkkkkkkkkkkk>@.@.@.@.@.@.bkkkkkkkkkkkk",
"kkkkkkkkkkkkbOOO@.@.@.@.@>kkkkkkkkkkkk>.@.@.@.@.@.@bkkkkkkkkkkkk",
"kkkkkkkkkkkkbOOO.@.@.@.@.>kkkkkkkkkkkk>@.@.@.@.@.@.bkkkkkkkkkkkk",
"kkkkkkkk....%tttttttttttt3O..$kkkk$...2tttttttttttt%....kkkkkkkk",
"kkkkkkkkOOOO%tttttttttttt3OOO$kkkk$@.+2tttttttttttt%OOOOkkkkkkkk",
"kkkkkkkk.O+ *tttttttttttt2+ O$kkkk$.@.2tttttttttttt*OOOOkkkkkkkk",
"kkkkkkkk+ @ *tttttttttttt2..O$kkkk$@.@2tttttttttttt*OOOOkkkkkkkk",
"kkkk;;;;8888annnnnnnnstttw8785;;;;5648wtttttttttttt98864;;;;kkkk",
"kkkkOOOOitttgAAAAAAAAdttttttt0OOOOqttttttttttttttttttttiOOOOkkkk",
"kkkkOOOOitttgAAAAAAAAdttttttt0 +OOqttttttttttttttttttttiOOOOkkkk",
"kkkkOOOOitttgAAAAhhhhpttttttte,,,,etttttttttttttttttttttOOOOkkkk",
"kkkkOOOOitttgAAAAttrtttttttttttttttttttttttttttttttttttiOOOOkkkk",
"kkkkOOOOitttgAAAAttrtttttttttttttttttttttttttttttttttttiOOOOkkkk",
"kkkkOOOOitttgAAAAttttttttttttttttttttttttttttttttttttttiOOOOkkkk",
"kkkkOOOOitttgCCCBtyytttttttttttttttttttttttttttttttttttiOOOOkkkk",
"kkkkOOOOittttttttrtttttttttttttttttttttttttttttttttttttiOOOOkkkk",
"kkkkOOOOittttttttttttttttttttttttttttttttttttttttttttttiOOOOkkkk",
"kkkkOOOOittttttttttttttttttttttttttttttttttttttttttttttiOOOOkkkk",
"kkkkOOOOittttttttttttttttttttttttttttttttttttttttttttttiOOOOkkkk",
"kkkkAAAAOOOO%tttttttttttttttttttttttttttttrtttttttt&@.+.AAAAkkkk",
"kkkkkkkk.OOO%tttttttttttttttttttttttttttitrtttttttt%.@..kkkkkkkk",
"kkkkkkkkO.OO%ttttttttttttttttttttttttttttuuuttttttt%@.@.kkkkkkkk",
"kkkkkkkk.O@@*tttttttttttttttttttttttttttttttttttttt%.@.Okkkkkkkk",
"kkkkkkkkkkkkb.OOOtttttttttttttttttttttttrrrtttiO@@+ckkkkkkkkkkkk",
"kkkkkkkkkkkkbOOO@ittttttttttttttttttttttrruutttO@@Obkkkkkkkkkkkk",
"kkkkkkkkkkkkb....ttttttttttttttttttttttttrtttttO +.ckkkkkkkkkkkk",
"kkkkkkkkkkkkc...@uuuttttttttttttttttttttttiutit OO.ckkkkkkkkkkkk",
"kkkkkkkkkkkkkkkkA..@.0tttttttttttttttttttt0O...Akkkkkkkkkkkkkkkk",
"kkkkkkkkkkkkkkkkA..@@0ttttttttttttttttttttqOOOOAkkkkkkkkkkkkkkkk",
"kkkkkkkkkkkkkkkkA...@qttttttttttttttttttttqOOO.Zkkkkkkkkkkkkkkkk",
"kkkkkkkkkkkkkkkkA..@.0tttttttttttttttttittqO...Akkkkkkkkkkkkkkkk",
"kkkkkkkkkkkkkkkkkAAAA#.o.=tttttttttttt=Ooo#AAAAkkkkkkkkkkkkkkkkk",
"kkkkkkkkkkkkkkkkkkkkk#@..-tttttttttttt-OOO#kkkkkkkkkkkkkkkkkkkkk",
"kkkkkkkkkkkkkkkkkkkkk#.@+=tttttttttttt-OOO#kkkkkkkkkkkkkkkkkkkkk",
"kkkkkkkkkkkkkkkkkkkkk#@..-tttttttttttt-OOO#kkkkkkkkkkkkkkkkkkkkk",
"kkkkkkkkkkkkkkkkkkkkkzlllf<<<1tttt1<<<flllzkkkkkkkkkkkkkkkkkkkkk",
"kkkkkkkkkkkkkkkkkkkkkkkkkx@..XttttX...xkkkkkkkkkkkkkkkkkkkkkkkkk",
"kkkkkkkkkkkkkkkkkkkkkkkkkx.@@XttttX@@.xkkkkkkkkkkkkkkkkkkkkkkkkk",
"kkkkkkkkkkkkkkkkkkkkkkkkkv;;;:6788:;;;vkkkkkkkkkkkkkkkkkkkkkkkkk",
"kkkkkkkkkkkkkkkkkkkkkkkkkkkkkM.@ +Mkkkkkkkkkkkkkkkkkkkkkkkkkkkkk",
"kkkkkkkkkkkkkkkkkkkkkkkkkkkkkM@. +Mkkkkkkkkkkkkkkkkkkkkkkkkkkkkk",
"kkkkkkkkkkkkkkkkkkkkkkkkkkkkkM.@@@Mkkkkkkkkkkkkkkkkkkkkkkkkkkkkk",
"kkkkkkkkkkkkkkkkkkkkkkkkkkkkkM@@@.Mkkkkkkkkkkkkkkkkkkkkkkkkkkkkk",
"kkkkkkkkkkkkkkkkkkkkkkkkkkkkkkkkkkkkkkkkkkkkkkkkkkkkkkkkkkkkkkkk",
"kkkkkkkkkkkkkkkkkkkkkkkkkkkkkkkkkkkkkkkkkkkkkkkkkkkkkkkkkkkkkkkk",
"kkkkkkkkkkkkkkkkkkkkkkkkkkkkkkkkkkkkkkkkkkkkkkkkkkkkkkkkkkkkkkkk",
"kkkkkkkkkkkkkkkkkkkkkkkkkkkkkkkkkkkkkkkkkkkkkkkkkkkkkkkkkkkkkkkk",
"kkkkkkkkkkkkkkkkkkkkkkkkkkkkkkkkkkkkkkkkkkkkkkkkkkkkkkkkkkkkkkkk",
"kkkkkkkkkkkkkkkkkkkkkkkkkkkkkkkkkkkkkkkkkkkkkkkkkkkkkkkkkkkkkkkk",
"kkkkkkkkkkkkkkkkkkkkkkkkkkkkkkkkkkkkkkkkkkkkkkkkkkkkkkkkkkkkkkkk",
"kkkkkkkkkkkkkkkkkkkkkkkkkkkkkkkkkkkkkkkkkkkkkkkkkkkkkkkkkkkkkkkk"
};
