/* XPM */
static char *_0170_93672604f3e74e075d76a3d4f5977ed8fd7d8061691ec0309f3b272523ace0ec[] = {
/* columns rows colors chars-per-pixel */
"64 64 11 1 ",
"  c #445963",
". c #445964",
"X c #455A64",
"o c #516975",
"O c #556F7C",
"+ c #57727E",
"@ c #597582",
"# c #5F7C8A",
"$ c #607B8B",
"% c #607C8A",
"& c #FF00B8",
/* pixels */
"&&&&&&&&&&&&&&&&&&&&&&&&&##############&&&&&&&&&&&&&&&&&&&&&&&&&",
"&&&&&&&&&&&&&&&&&&&&&&&&################&&&&&&&&&&&&&&&&&&&&&&&&",
"&&&&&&&&&&&&&&&&&&&&&&&&################&&&&&&&&&&&&&&&&&&&&&&&&",
"&&&&&&&&&&&&&&&&&&&&&&&&################$&&&&&&&&&&&&&&&&&&&&&&&",
"&&&&&&&&&&&&&&&&&&&&&&&&#################&&&&&&&&&&&&&&&&&&&&&&&",
"&&&&&&&&&&&&&&&&&&&&&&&&#################&&&&&&&&&&&&&&&&&&&&&&&",
"&&&&&&&&&&&&&&&&&&&&&&&##################&&&&&&&&&&&&&&&&&&&&&&&",
"&&&&&&&&&&&&&&&&&&&&&&&##################&&&&&&&&&&&&&&&&&&&&&&&",
"&&&&&&&&&&&&&&&&&&&&&&&##################&&&&&&&&&&&&&&&&&&&&&&&",
"&&&&&&&&&&&&&&&&&&&&&&&##################&&&&&&&&&&&&&&&&&&&&&&&",
"&&&&&&&####&&&&&&&&&&&####################&&&&&&&&&&&####&&&&&&&",
"&&&&&&&######&&&&&&&########################&&&&&&&######&&&&&&&",
"&&&&&&%#######&&&&&##########################&&&&&########&&&&&&",
"&&&&&######################################################&&&&&",
"&&&&&#######################XXXXXXXX########################&&&&",
"&&&&#####################XXXXXXXXXXXXXX#####################&&&&",
"&&&&##################XXXXXXXXXXXXXXXXXXXX##################&&&&",
"&&&##################XXXXXXXXXXXXXXXXXXXXXO##################&&&",
"&&#################XXXXXXXXXXXXXXXXXXXXXXXXXX#################&&",
"&&#################XXXXXXXXXXXXXXXXXXXXXXXXXX##################&",
"&#################XXXXXXXXXXXXXXXXXXXXXXXXXXXX#################&",
"&###############XXXXXXXXXXXXXXXXXXXXXXXXXXXXXXX################&",
"&###############XXXXXXXXXXXXXXXXXXXXXXXXXXXXXXXX################",
"&###############XXXXXXXXXXXXXXXXXXXXXXXXXXXXXXXX################",
"&&#############XXXXXXXXXXXXXXXX. XXXXXXXXXXXXXXXX##############&",
"&&&############XXXXXXXXXXXXX.&&&&&&XXXXXXXXXXXXXX#############&&",
"&&&&##########XXXXXXXXXXXXXX&&&&&&&&XXXXXXXXXXXXXX##########&&&&",
"&&&&&&########XXXXXXXXXXXX&&&&&&&&&&&&XXXXXXXXXXXX########&&&&&&",
"&&&&&&&######XXXXXXXXXXXX&&&&&&&&&&&&&&XXXXXXXXXXX@######&&&&&&&",
"&&&&&&&&#####XXXXXXXXXXXX&&&&&&&&&&&&&&XXXXXXXXXXXX######&&&&&&&",
"&&&&&&&&#####XXXXXXXXXXXX&&&&&&&&&&&&&&XXXXXXXXXXXX######&&&&&&&",
"&&&&&&&######XXXXXXXXXXXX&&&&&&&&&&&&&&XXXXXXXXXXXX######&&&&&&&",
"&&&&&&&######XXXXXXXXXXXX&&&&&&&&&&&&&&XXXXXXXXXXXX######&&&&&&&",
"&&&&&&&&#####XXXXXXXXXXXX&&&&&&&&&&&&&&XXXXXXXXXXXX######&&&&&&&",
"&&&&&&&&#####XXXXXXXXXXXX&&&&&&&&&&&&&&XXXXXXXXXXXX######&&&&&&&",
"&&&&&&&######XXXXXXXXXXXX&&&&&&&&&&&&&&XXXXXXXXXXXo######&&&&&&&",
"&&&&&&########XXXXXXXXXXXX&&&&&&&&&&&&XXXXXXXXXXXX########&&&&&&",
"&&&&##########XXXXXXXXXXXXXX&&&&&&&&XXXXXXXXXXXXXX##########&&&&",
"&&&############XXXXXXXXXXXXX&&&&&&&&XXXXXXXXXXXXX############&&&",
"&##############XXXXXXXXXXXXXXXX&&XXXXXXXXXXXXXXXX#############&&",
"################XXXXXXXXXXXXXXXXXXXXXXXXXXXXXXXX###############&",
"################XXXXXXXXXXXXXXXXXXXXXXXXXXXXXXXX###############&",
"&###############XXXXXXXXXXXXXXXXXXXXXXXXXXXXXXX+###############&",
"&#################XXXXXXXXXXXXXXXXXXXXXXXXXXXX#################&",
"&##################XXXXXXXXXXXXXXXXXXXXXXXXXX#################&&",
"&&#################XXXXXXXXXXXXXXXXXXXXXXXXXX#################&&",
"&&&##################XXXXXXXXXXXXXXXXXXXXXX#################&&&&",
"&&&&##################XXXXXXXXXXXXXXXXXXXX##################&&&&",
"&&&&#####################XXXXXXXXXXXXXX#####################&&&&",
"&&&&########################XXXXXXXX#######################&&&&&",
"&&&&&######################################################&&&&&",
"&&&&&&########&&&&&##########################&&&&########&&&&&&&",
"&&&&&&&######&&&&&&&########################&&&&&&&######&&&&&&&",
"&&&&&&&####&&&&&&&&&&#####################&&&&&&&&&&&####&&&&&&&",
"&&&&&&&&&&&&&&&&&&&&&&&##################&&&&&&&&&&&&&&&&&&&&&&&",
"&&&&&&&&&&&&&&&&&&&&&&&##################&&&&&&&&&&&&&&&&&&&&&&&",
"&&&&&&&&&&&&&&&&&&&&&&&##################&&&&&&&&&&&&&&&&&&&&&&&",
"&&&&&&&&&&&&&&&&&&&&&&&#################&&&&&&&&&&&&&&&&&&&&&&&&",
"&&&&&&&&&&&&&&&&&&&&&&&#################&&&&&&&&&&&&&&&&&&&&&&&&",
"&&&&&&&&&&&&&&&&&&&&&&&#################&&&&&&&&&&&&&&&&&&&&&&&&",
"&&&&&&&&&&&&&&&&&&&&&&&#################&&&&&&&&&&&&&&&&&&&&&&&&",
"&&&&&&&&&&&&&&&&&&&&&&&#################&&&&&&&&&&&&&&&&&&&&&&&&",
"&&&&&&&&&&&&&&&&&&&&&&&&################&&&&&&&&&&&&&&&&&&&&&&&&",
"&&&&&&&&&&&&&&&&&&&&&&&&%##############&&&&&&&&&&&&&&&&&&&&&&&&&"
};
